<?xml version="1.0" encoding="UTF-8"?>
<svg xmlns="http://www.w3.org/2000/svg" xmlns:xlink="http://www.w3.org/1999/xlink" version="1.1" viewBox="0 0 928.2 619">
  <!-- Generator: Adobe Illustrator 30.2.1, SVG Export Plug-In . SVG Version: 2.1.1 Build 1)  -->
  <defs>
    <style>
      .st0 {
        fill: none;
      }

      .st1 {
        fill: url(#linear-gradient2);
      }

      .st2 {
        fill: url(#linear-gradient1);
      }

      .st3 {
        fill: url(#linear-gradient9);
      }

      .st4 {
        fill: url(#linear-gradient3);
      }

      .st5 {
        fill: url(#linear-gradient6);
      }

      .st6 {
        fill: url(#linear-gradient8);
      }

      .st7 {
        fill: url(#linear-gradient7);
      }

      .st8 {
        fill: url(#linear-gradient5);
      }

      .st9 {
        fill: url(#linear-gradient4);
      }

      .st10 {
        fill: url(#linear-gradient31);
      }

      .st11 {
        fill: url(#linear-gradient30);
      }

      .st12 {
        fill: url(#linear-gradient38);
      }

      .st13 {
        fill: url(#linear-gradient32);
      }

      .st14 {
        fill: url(#linear-gradient61);
      }

      .st15 {
        fill: url(#linear-gradient60);
      }

      .st16 {
        fill: url(#linear-gradient62);
      }

      .st17 {
        fill: url(#linear-gradient65);
      }

      .st18 {
        fill: url(#linear-gradient68);
      }

      .st19 {
        fill: url(#linear-gradient67);
      }

      .st20 {
        fill: url(#linear-gradient64);
      }

      .st21 {
        fill: url(#linear-gradient63);
      }

      .st22 {
        fill: url(#linear-gradient66);
      }

      .st23 {
        fill: url(#linear-gradient39);
      }

      .st24 {
        fill: url(#linear-gradient34);
      }

      .st25 {
        fill: url(#linear-gradient37);
      }

      .st26 {
        fill: url(#linear-gradient35);
      }

      .st27 {
        fill: url(#linear-gradient33);
      }

      .st28 {
        fill: url(#linear-gradient36);
      }

      .st29 {
        fill: url(#linear-gradient40);
      }

      .st30 {
        fill: url(#linear-gradient41);
      }

      .st31 {
        fill: url(#linear-gradient42);
      }

      .st32 {
        fill: url(#linear-gradient46);
      }

      .st33 {
        fill: url(#linear-gradient48);
      }

      .st34 {
        fill: url(#linear-gradient43);
      }

      .st35 {
        fill: url(#linear-gradient44);
      }

      .st36 {
        fill: url(#linear-gradient47);
      }

      .st37 {
        fill: url(#linear-gradient45);
      }

      .st38 {
        fill: url(#linear-gradient49);
      }

      .st39 {
        fill: url(#linear-gradient50);
      }

      .st40 {
        fill: url(#linear-gradient51);
      }

      .st41 {
        fill: url(#linear-gradient52);
      }

      .st42 {
        fill: url(#linear-gradient59);
      }

      .st43 {
        fill: url(#linear-gradient53);
      }

      .st44 {
        fill: url(#linear-gradient54);
      }

      .st45 {
        fill: url(#linear-gradient58);
      }

      .st46 {
        fill: url(#linear-gradient28);
      }

      .st47 {
        fill: url(#linear-gradient29);
      }

      .st48 {
        fill: url(#linear-gradient10);
      }

      .st49 {
        fill: url(#linear-gradient23);
      }

      .st50 {
        fill: url(#linear-gradient22);
      }

      .st51 {
        fill: url(#linear-gradient24);
      }

      .st52 {
        fill: url(#linear-gradient25);
      }

      .st53 {
        fill: url(#linear-gradient21);
      }

      .st54 {
        fill: url(#linear-gradient20);
      }

      .st55 {
        fill: url(#linear-gradient27);
      }

      .st56 {
        fill: url(#linear-gradient26);
      }

      .st57 {
        isolation: isolate;
      }

      .st58 {
        fill: url(#linear-gradient);
      }

      .st58, .st59, .st60, .st61, .st62, .st63, .st64, .st65, .st66, .st67, .st68, .st69, .st70 {
        mix-blend-mode: screen;
      }

      .st59 {
        fill: url(#linear-gradient69);
      }

      .st60 {
        fill: url(#linear-gradient57);
      }

      .st61 {
        fill: url(#linear-gradient55);
      }

      .st62 {
        fill: url(#linear-gradient56);
      }

      .st63 {
        fill: url(#linear-gradient19);
      }

      .st64 {
        fill: url(#linear-gradient17);
      }

      .st65 {
        fill: url(#linear-gradient18);
      }

      .st71 {
        fill: url(#linear-gradient14);
      }

      .st71, .st72, .st73, .st74, .st75, .st76 {
        opacity: .2;
      }

      .st72 {
        fill: url(#linear-gradient15);
      }

      .st73 {
        fill: url(#linear-gradient11);
      }

      .st74 {
        fill: url(#linear-gradient16);
      }

      .st75 {
        fill: url(#linear-gradient12);
      }

      .st76 {
        fill: url(#linear-gradient13);
      }

      .st77 {
        clip-path: url(#clippath);
      }

      .st67 {
        opacity: .5;
      }

      .st68 {
        opacity: .5;
      }

      .st69 {
        opacity: .4;
      }

      .st70 {
        opacity: .3;
      }
    </style>
    <clipPath id="clippath">
      <rect class="st0" x="-2" width="933" height="619"/>
    </clipPath>
    <linearGradient id="linear-gradient" x1="134.6" y1="322" x2="770.6" y2="322" gradientUnits="userSpaceOnUse">
      <stop offset="0" stop-color="#fff"/>
      <stop offset="0" stop-color="#fbfbfb"/>
      <stop offset="0" stop-color="#b9b9b9"/>
      <stop offset="0" stop-color="#818181"/>
      <stop offset=".1" stop-color="#525252"/>
      <stop offset=".1" stop-color="#2e2e2e"/>
      <stop offset=".2" stop-color="#151515"/>
      <stop offset=".2" stop-color="#050505"/>
      <stop offset=".2" stop-color="#000"/>
      <stop offset=".2" stop-color="#131313"/>
      <stop offset=".3" stop-color="#515151"/>
      <stop offset=".3" stop-color="#868686"/>
      <stop offset=".3" stop-color="#b1b1b1"/>
      <stop offset=".4" stop-color="#d3d3d3"/>
      <stop offset=".4" stop-color="#ebebeb"/>
      <stop offset=".4" stop-color="#f9f9f9"/>
      <stop offset=".5" stop-color="#fff"/>
      <stop offset=".7" stop-color="#000"/>
      <stop offset=".8" stop-color="#fff"/>
      <stop offset="1" stop-color="#000"/>
    </linearGradient>
    <linearGradient id="linear-gradient1" x1="76.9" y1="40.5" x2="879.3" y2="442.9" xlink:href="#linear-gradient"/>
    <linearGradient id="linear-gradient2" x1="83.5" y1="27.3" x2="885.9" y2="429.7" xlink:href="#linear-gradient"/>
    <linearGradient id="linear-gradient3" x1="37.9" y1="118.3" x2="840.3" y2="520.7" xlink:href="#linear-gradient"/>
    <linearGradient id="linear-gradient4" x1="79.9" y1="34.4" x2="882.3" y2="436.8" xlink:href="#linear-gradient"/>
    <linearGradient id="linear-gradient5" x1="121.5" y1="-48.5" x2="923.9" y2="353.9" xlink:href="#linear-gradient"/>
    <linearGradient id="linear-gradient6" x1="90" y1="14.3" x2="892.4" y2="416.7" xlink:href="#linear-gradient"/>
    <linearGradient id="linear-gradient7" x1="46.9" y1="100.3" x2="849.3" y2="502.7" xlink:href="#linear-gradient"/>
    <linearGradient id="linear-gradient8" x1="56.6" y1="80.9" x2="859" y2="483.3" xlink:href="#linear-gradient"/>
    <linearGradient id="linear-gradient9" x1="100.3" y1="-6.2" x2="902.7" y2="396.2" xlink:href="#linear-gradient"/>
    <linearGradient id="linear-gradient10" x1="39.9" y1="114.1" x2="842.3" y2="516.5" xlink:href="#linear-gradient"/>
    <linearGradient id="linear-gradient11" x1="1360.5" y1="4010.9" x2="1659.4" y2="4010.9" gradientTransform="translate(4429.2 2271.3) rotate(135)" gradientUnits="userSpaceOnUse">
      <stop offset="0" stop-color="#fff"/>
      <stop offset="1" stop-color="#000917"/>
    </linearGradient>
    <linearGradient id="linear-gradient12" x1="1312.5" y1="4040.8" x2="1442.5" y2="4040.8" xlink:href="#linear-gradient11"/>
    <linearGradient id="linear-gradient13" x1="1063.1" y1="4053.4" x2="1279.9" y2="4053.4" xlink:href="#linear-gradient11"/>
    <linearGradient id="linear-gradient14" x1="1192.6" y1="4002.1" x2="1257.6" y2="4002.1" xlink:href="#linear-gradient11"/>
    <linearGradient id="linear-gradient15" x1="1170.2" y1="3968.5" x2="1262.1" y2="3968.5" xlink:href="#linear-gradient11"/>
    <linearGradient id="linear-gradient16" x1="1264.5" y1="3961" x2="1459.3" y2="3961" xlink:href="#linear-gradient11"/>
    <linearGradient id="linear-gradient17" x1="1562.3" y1="3924" x2="1405.8" y2="4160" xlink:href="#linear-gradient11"/>
    <linearGradient id="linear-gradient18" x1="1123.6" y1="4040" x2="1294.9" y2="4040" xlink:href="#linear-gradient11"/>
    <linearGradient id="linear-gradient19" x1="1168.7" y1="3955.2" x2="1512.5" y2="3955.2" xlink:href="#linear-gradient11"/>
    <linearGradient id="linear-gradient20" x1="1435.9" y1="3876.5" x2="1165.7" y2="4176.8" xlink:href="#linear-gradient11"/>
    <linearGradient id="linear-gradient21" x1="1436.2" y1="3877.3" x2="1165.1" y2="4178.5" xlink:href="#linear-gradient11"/>
    <linearGradient id="linear-gradient22" x1="1572.5" y1="3978.2" x2="1472.6" y2="4089.2" xlink:href="#linear-gradient11"/>
    <linearGradient id="linear-gradient23" x1="1626.3" y1="3950" x2="1421.6" y2="4177.3" xlink:href="#linear-gradient11"/>
    <linearGradient id="linear-gradient24" x1="1684.4" y1="3887.3" x2="1365.8" y2="4241.2" xlink:href="#linear-gradient11"/>
    <linearGradient id="linear-gradient25" x1="1728.6" y1="3798.3" x2="1305.6" y2="4268.1" xlink:href="#linear-gradient11"/>
    <linearGradient id="linear-gradient26" x1="1751.6" y1="3686" x2="1235.9" y2="4258.9" xlink:href="#linear-gradient11"/>
    <linearGradient id="linear-gradient27" x1="1732.2" y1="3587.2" x2="1166.1" y2="4216.1" xlink:href="#linear-gradient11"/>
    <linearGradient id="linear-gradient28" x1="1644.7" y1="3559.5" x2="1106" y2="4157.9" xlink:href="#linear-gradient11"/>
    <linearGradient id="linear-gradient29" x1="1492" y1="3628.9" x2="1061.9" y2="4106.7" xlink:href="#linear-gradient11"/>
    <linearGradient id="linear-gradient30" x1="1451.9" y1="3609.5" x2="1031.2" y2="4076.8" xlink:href="#linear-gradient11"/>
    <linearGradient id="linear-gradient31" x1="1357.5" y1="3685" x2="1023.8" y2="4055.8" xlink:href="#linear-gradient11"/>
    <linearGradient id="linear-gradient32" x1="1304.4" y1="3741.6" x2="1031.4" y2="4044.8" xlink:href="#linear-gradient11"/>
    <linearGradient id="linear-gradient33" x1="1278.6" y1="3786.4" x2="1050.1" y2="4040.2" xlink:href="#linear-gradient11"/>
    <linearGradient id="linear-gradient34" x1="1277" y1="3816.7" x2="1072.8" y2="4043.6" xlink:href="#linear-gradient11"/>
    <linearGradient id="linear-gradient35" x1="1287.3" y1="3841.9" x2="1097.7" y2="4052.5" xlink:href="#linear-gradient11"/>
    <linearGradient id="linear-gradient36" x1="1307.4" y1="3861.9" x2="1120.6" y2="4069.4" xlink:href="#linear-gradient11"/>
    <linearGradient id="linear-gradient37" x1="1333.4" y1="3879.4" x2="1138" y2="4096.5" xlink:href="#linear-gradient11"/>
    <linearGradient id="linear-gradient38" x1="1366.7" y1="3892.2" x2="1124.2" y2="4161.6" xlink:href="#linear-gradient11"/>
    <linearGradient id="linear-gradient39" x1="1407.4" y1="3899.8" x2="1001.5" y2="4350.7" xlink:href="#linear-gradient11"/>
    <linearGradient id="linear-gradient40" x1="1461.1" y1="3895.4" x2="596.2" y2="4856.2" xlink:href="#linear-gradient11"/>
    <linearGradient id="linear-gradient41" x1="1480.9" y1="3930.3" x2="1232.6" y2="4206.2" xlink:href="#linear-gradient11"/>
    <linearGradient id="linear-gradient42" x1="1510.7" y1="3954.3" x2="1433.9" y2="4039.7" xlink:href="#linear-gradient11"/>
    <linearGradient id="linear-gradient43" x1="737.6" y1="3639.4" x2="2032.6" y2="4281.2" xlink:href="#linear-gradient11"/>
    <linearGradient id="linear-gradient44" x1="635.5" y1="3662.3" x2="2058.6" y2="4367.5" xlink:href="#linear-gradient11"/>
    <linearGradient id="linear-gradient45" x1="385.3" y1="3744.6" x2="2084.8" y2="4586.9" xlink:href="#linear-gradient11"/>
    <linearGradient id="linear-gradient46" x1="920" y1="3962.4" x2="1339.9" y2="4170.6" xlink:href="#linear-gradient11"/>
    <linearGradient id="linear-gradient47" x1="828" y1="3766.1" x2="2240" y2="4465.9" xlink:href="#linear-gradient11"/>
    <linearGradient id="linear-gradient48" x1="1091.3" y1="3794.8" x2="1767.5" y2="4130" xlink:href="#linear-gradient11"/>
    <linearGradient id="linear-gradient49" x1="976.9" y1="3697.7" x2="1907" y2="4158.7" xlink:href="#linear-gradient11"/>
    <linearGradient id="linear-gradient50" x1="508.5" y1="3680.8" x2="2094.6" y2="4466.8" xlink:href="#linear-gradient11"/>
    <linearGradient id="linear-gradient51" x1="722.5" y1="3864.3" x2="1769.7" y2="4383.3" xlink:href="#linear-gradient11"/>
    <linearGradient id="linear-gradient52" x1="887.8" y1="3868.9" x2="1702.3" y2="4272.6" xlink:href="#linear-gradient11"/>
    <linearGradient id="linear-gradient53" x1="944.9" y1="3790.8" x2="1915.6" y2="4271.8" xlink:href="#linear-gradient11"/>
    <linearGradient id="linear-gradient54" x1="1074.7" y1="3786.5" x2="1776.6" y2="4134.3" xlink:href="#linear-gradient11"/>
    <linearGradient id="linear-gradient55" x1="1138.7" y1="3858.9" x2="1863.9" y2="4536.2" xlink:href="#linear-gradient11"/>
    <linearGradient id="linear-gradient56" x1="1273.2" y1="3929.4" x2="1364.3" y2="4095.8" xlink:href="#linear-gradient11"/>
    <linearGradient id="linear-gradient57" x1="1130.6" y1="3870.1" x2="1881.2" y2="4571.1" xlink:href="#linear-gradient11"/>
    <linearGradient id="linear-gradient58" x1="1365.5" y1="3950.5" x2="1479.9" y2="4029.3" xlink:href="#linear-gradient11"/>
    <linearGradient id="linear-gradient59" x1="1284.9" y1="4041.5" x2="1612.5" y2="4267" xlink:href="#linear-gradient11"/>
    <linearGradient id="linear-gradient60" x1="1059" y1="4025.5" x2="1202.2" y2="4124.1" xlink:href="#linear-gradient11"/>
    <linearGradient id="linear-gradient61" x1="1075.2" y1="3941.9" x2="1229.6" y2="4048.2" xlink:href="#linear-gradient11"/>
    <linearGradient id="linear-gradient62" x1="1219.7" y1="3923.9" x2="1292.8" y2="3974.2" xlink:href="#linear-gradient11"/>
    <linearGradient id="linear-gradient63" x1="1330.8" y1="3939.8" x2="1382.4" y2="3975.4" xlink:href="#linear-gradient11"/>
    <linearGradient id="linear-gradient64" x1="1384.7" y1="3918.6" x2="1574.8" y2="4049.5" xlink:href="#linear-gradient11"/>
    <linearGradient id="linear-gradient65" x1="894.6" y1="3694.7" x2="1561" y2="4209.1" xlink:href="#linear-gradient11"/>
    <linearGradient id="linear-gradient66" x1="1019.2" y1="3908" x2="1387.8" y2="4192.5" xlink:href="#linear-gradient11"/>
    <linearGradient id="linear-gradient67" x1="1131.4" y1="3943" x2="1298.4" y2="4071.9" xlink:href="#linear-gradient11"/>
    <linearGradient id="linear-gradient68" x1="1156.9" y1="3842.8" x2="1523.6" y2="4125.8" xlink:href="#linear-gradient11"/>
    <linearGradient id="linear-gradient69" x1="1157.1" y1="3857.7" x2="1578.2" y2="4034.6" xlink:href="#linear-gradient11"/>
  </defs>
  <g class="st57">
    <g id="Layer_1">
      <g class="st77">
        <image width="1275" height="1183" transform="translate(-173 -211)" xlink:href="AdobeStock_384115471 [更新済み]-1.png"/>
      </g>
    </g>
    <g id="Layer_2">
      <path class="st58" d="M740.2,303.1c-.3,0-.6.1-.9.4l-49.1-46.4c0-.1.2-.2.2-.4,0-.3-.3-.6-.6-.6s-.6.2-.6.5l-29.8-3s0,0,0-.1c0-.7-.5-1.2-1.2-1.2s0,0,0,0l-1-21.8c.2,0,.3,0,.4-.2l11.9,10.9c-.2.2-.3.5-.3.8,0,.7.5,1.2,1.2,1.2s1.2-.5,1.2-1.2-.3-1-.8-1.1l4.8-13.6c.1,0,.3,0,.4,0,.7,0,1.2-.5,1.2-1.2s-.5-1.2-1.2-1.2-.8.2-1,.6l-3.5-1.9.5-9.3,1.7-1.5,4.6-.8,27,2.3s0,0,0,0c0,.3.3.6.6.6s.6-.3.6-.6-.3-.6-.6-.6,0,0,0,0l-3.8-21.2c.3,0,.5-.3.5-.6s0-.3-.2-.4l18.2-19.4c.1,0,.2.2.4.2.3,0,.6-.3.6-.6s0-.1,0-.2l49.2-18.4h0s-49.2,18.4-49.2,18.4c0-.2-.2-.3-.4-.4l5.3-19.8h0s-5.3,19.8-5.3,19.8c0,0,0,0-.1,0-.3,0-.6.3-.6.6s0,.3.1.4l-21.1,18.4-23.4-13.2c0,0,0-.2,0-.3,0-.3-.3-.6-.6-.6s-.6.3-.6.6.3.6.6.6.2,0,.3-.1l15.1,20.4-15.1,13.2-2.9.3c0-.3-.3-.5-.6-.5s-.6.3-.6.6,0,.3.2.4l-1.4,1.4-12.1,2c0-.6-.6-1-1.2-1s-1.2.5-1.2,1.2.5,1.2,1.2,1.2v9.9c-.3,0-.6.3-.6.6s.3.6.6.6,0,0,0,0v1.4c-.3,0-.5.3-.5.6s0,.3.2.4l-24.1,22.3-8.4-.3s0,0,0,0c0-.3-.3-.6-.6-.6s-.6.3-.6.6,0,.4.2.5l-21.6,28.2c-.2-.2-.4-.2-.7-.2-.7,0-1.2.5-1.2,1.2s.2.8.6,1l-5.9,9.5-114.6-9.3s0,0,0,0c0-.3-.3-.6-.6-.6s-.6.3-.6.6,0,.2,0,.3l-37.6,22.3-20-25.2c.3-.2.4-.6.4-.9,0-.7-.5-1.2-1.2-1.2s-1.2.5-1.2,1.2.5,1.2,1.2,1.2,0,0,0,0l.7,21.1-4.3-2.2c0,0,0-.2,0-.3,0-.3-.3-.6-.6-.6s-.6.3-.6.6,0,0,0,0l-48.9,1.2c0-.3-.3-.6-.6-.6s-.6.3-.6.6.2.5.5.6l-1.5,9.4c0,0-.1,0-.2,0-.7,0-1.2.5-1.2,1.2s.5,1.2,1.2,1.2.3,0,.4,0l3.8,9.8c-.2,0-.4.3-.4.6s0,0,0,0l-5.1,1c0-.3-.3-.5-.6-.5s-.6.3-.6.6.3.6.6.6v69.8c-.3,0-.6.3-.6.6l-67.2-1.2s0,0,0,0c0-.7-.5-1.2-1.2-1.2s-.7.2-.9.4l-29.4-23.4c0-.1.1-.2.1-.4,0-.3-.3-.6-.6-.6s-.4,0-.5.2l-35.9-28.4c0-.1.1-.2.1-.4,0-.3-.3-.6-.6-.6s-.6.3-.6.6.3.6.6.6.2,0,.2,0l16.9,38.9c-.4.2-.7.6-.7,1.1s0,.2,0,.2l-63.4,13.8c0-.3-.3-.5-.6-.5s-.6.3-.6.6.3.6.6.6.5-.2.6-.4l45.9,13.7c0,.1,0,.2,0,.3,0,.2,0,.4.2.6l-90.2,57.4h0s90.2-57.3,90.2-57.3c.2.3.6.5,1,.5s.2,0,.3,0l9.8,59.1h0s-9.8-59.1-9.8-59.1c.2,0,.4-.2.5-.3l25.9,14.8c0,0,0,.2,0,.3,0,.3.3.6.6.6s.2,0,.3-.1l27.7,39.9h0s-27.7-39.9-27.7-39.9c.2-.1.2-.3.2-.5s0-.2,0-.3l31.1-21.2,24,20.6c0,.1-.1.2-.1.4,0,.3.3.6.6.6s.6-.3.6-.6-.3-.6-.6-.6-.2,0-.3,0l-14.8-29.2c.4-.2.6-.6.6-1l67.2,1.2c0,.3.3.6.6.6s.6-.3.6-.6-.3-.6-.6-.6v-69.8s0,0,.1,0l10.2,38.9c-.3,0-.4.3-.4.6s.3.6.6.6.6-.3.6-.6-.3-.6-.6-.6,0,0-.1,0l-10.2-38.9c.1,0,.3-.1.3-.2l23.1,15.2c-.1.2-.2.4-.2.6,0,.7.5,1.2,1.2,1.2s1.2-.5,1.2-1.2-.3-1-.8-1.1l4.8-15.1c.1,0,.2,0,.3,0,.7,0,1.2-.5,1.2-1.2s-.5-1.2-1.2-1.2-.7.2-.9.4l-15.7-13.5,39.7-9.5c0,.3.3.4.6.4s.1,0,.2,0l5,16.8c-.2,0-.4.3-.4.6s.3.6.6.6.4,0,.5-.2l104.6,78.2c-.1.2-.2.4-.2.7,0,.7.5,1.2,1.2,1.2s0,0,0,0l1,11.8c-.3,0-.5.3-.5.6s.3.6.6.6.6-.3.6-.6,0-.2,0-.3l12.2-7.1c.2.4.6.6,1,.6s.8-.2,1-.6l13.8,7.7c0,0,0,.2,0,.3,0,.2.1.4.3.5l-50.1,81.3h0s50.1-81.3,50.1-81.3c0,0,.2,0,.3,0,.3,0,.6-.3.6-.6s0-.2,0-.3l38-19.9c.1.2.3.3.5.3s.2,0,.3,0l52.2,80.2h0s-52.2-80.2-52.2-80.2c.2-.1.3-.3.3-.5,0-.3-.3-.6-.6-.6s-.6.3-.6.6,0,.2,0,.3l-38,19.9c-.1-.2-.3-.3-.5-.3s0,0,0,0l-2.8-17.5,1.8-1.4c.1.1.3.2.5.2.3,0,.6-.3.6-.6s-.3-.6-.6-.6-.1,0-.2,0l-3.5-8.5c.4-.2.7-.6.7-1.1s-.5-1.2-1.2-1.2-1.2.5-1.2,1.2,0,.4.2.6l-6.1,3.8-6.5-3.3c0-.3-.2-.5-.4-.6l55.3-88.8,144.7,11.7s0,0,0,0c0,.7.5,1.2,1.2,1.2s1.2-.5,1.2-1.2-.5-1.2-1.2-1.2ZM263.1,370.1l29.4,23.4c-.2.2-.3.5-.3.7s.2.7.4.9l-6.7,7.8c-.1,0-.2-.1-.4-.1s-.2,0-.3,0l-22.2-32.7s0,0,.1-.1ZM262.9,370.2l22.2,32.7c-.1,0-.2.2-.2.3l-2-.6-19.6-16.8-.7-15.5c.1,0,.2,0,.3,0ZM263.8,396.6s0,0,0,0l-.5-10.7,19.6,16.8-18.5-5.3s0,0,0-.2c0-.3-.3-.6-.6-.6ZM259.2,383s0,0,0,0c.2,0,.3,0,.4-.2l3.5,3,.5,10.8c-.2,0-.3,0-.4.2l-5.5-4.3,1.4-9.5ZM257.8,392.5l-5.6-4.4,6.6-5.3c0,.1.2.2.4.2l-1.4,9.5ZM226.3,341l35.9,28.4c0,.1-.1.2-.1.4,0,.3.3.6.6.6s0,0,0,0l.7,15.5-3.5-3c0-.1.1-.2.1-.4,0-.3-.3-.6-.6-.6s-.3,0-.4.1l-32.8-40.9s0,0,0,0ZM226,341.2s0,0,.1,0l32.8,40.9c-.1.1-.2.3-.2.5s0,.3.1.4l-6.6,5.3-7.9-6.2c.2-.2.2-.5.2-.7,0-.7-.5-1.2-1.2-1.2s-.3,0-.5,0l-16.9-38.9ZM252.2,388.2l-6.2,5-2.3-10.8c.3,0,.5-.2.7-.4l7.9,6.2ZM225.8,408.4c-.5,0-1,.4-1.1.8l-45.9-13.7c0,0,0-.1,0-.2s0,0,0-.1l63.4-13.8c.1.5.6.9,1.2.9s.2,0,.2,0l2.3,10.8-19.3,15.6c-.2-.3-.6-.4-.9-.4ZM252.5,425.3l-25.8-14.8c.2-.2.4-.5.4-.9s0-.5-.3-.7l19.2-15.6,6.9,31.8c-.2,0-.3.1-.4.3ZM253,425s0,0-.1,0l-6.9-31.8,6.2-5.1,5.6,4.4-4.7,32.5s0,0,0,0ZM253.1,425.1l4.7-32.5,5.5,4.3c0,.1-.1.2-.1.4,0,.3.2.5.4.6l-10.4,27.3s0,0-.1,0ZM253.5,425.3c0,0-.2-.2-.3-.2l10.4-27.3c0,0,.1,0,.2,0,.3,0,.5-.2.6-.4l18.6,5.3,1.6,1.4-31,21.2ZM283,402.7l1.9.5s0,0,0,.2c0,.1,0,.2,0,.3l-.4.3-1.6-1.3ZM308.7,424.5c0,0-.1,0-.2.1l-24-20.6.4-.3c.1.2.3.3.5.3.3,0,.6-.3.6-.6s0-.3-.2-.4l6.7-7.8c.2.2.5.3.8.3s.4,0,.5-.1l14.8,29.2ZM366.4,300.9l9.4,8-8.5,2-1.2-9.9c.1,0,.3,0,.4-.2ZM365.4,311.5l1.9-.4.2,2-2.2-.9c0-.1,0-.3,0-.4s0-.2,0-.3ZM364.4,310.6l1.5-9.4s0,0,0,0,0,0,0,0l1.2,9.9-1.9.4c-.1-.5-.5-.8-1-.9ZM364.6,312.9c.3-.1.5-.4.7-.6l2.2.9,1.1,9.6s0,0-.1,0l-3.8-9.8ZM367.5,313.1l23.9,9.7c0,.1,0,.3,0,.4h-22c0-.3-.3-.6-.6-.6s0,0,0,0l-1.1-9.5ZM392.1,324.4l-4.8,15.1c-.1,0-.2,0-.3,0-.4,0-.8.2-1,.5l-23.1-15.2c0,0,0-.2,0-.3s0,0,0,0l5.1-1c0,.3.3.5.6.5s.6-.3.6-.6h22c0,.5.3,1,.8,1.1ZM391.6,322.5c0,0-.1.2-.2.3l-23.9-9.7-.2-2,8.6-2,15.8,13.5ZM375.8,309l-9.4-8c0-.1.1-.2.1-.4s0,0,0,0l48.9-1.2s0,0,0,.1l-39.7,9.5ZM449.3,316.3c0,0-.1.1-.1.2l-14-7.3,5.8-3.4,8.3,10.5ZM420.3,280.7c.3,0,.5-.1.7-.3l20,25.2-5.8,3.4-14.2-7.4-.7-21.1ZM421.2,316.8l-5-16.8c.1,0,.3-.2.3-.3l4.3,2.2.5,14.9s0,0-.1,0ZM421.4,316.7s0,0,0,0l-.5-14.9,14.2,7.3-13.2,7.8c-.1-.2-.3-.3-.5-.3ZM528.6,409.6s0,0,0,0l-1-11.8c.6,0,1.1-.6,1.1-1.2s0-.1,0-.2l5.3-1-5.1,14.3c0,0-.1,0-.2,0ZM540,388.8l.9,5.2-7.1,1.4,1.3-3.5,4.9-3ZM535.2,391.8l3.4-9.4c0,0,.2,0,.3,0s0,0,.1,0l1.1,6.3-4.9,3ZM533.9,395.4l-5.3,1c0-.1,0-.3-.2-.4l6.7-4.2-1.3,3.5ZM528.8,409.7l5.1-14.3,7.1-1.4.2,1-12.2,14.7s-.1,0-.2,0ZM541,394.1l1.2-.2-1,1.2-.2-1ZM541.2,402.2c0,.2,0,.4.2.6l-12.2,7.1c0,0,0-.1-.1-.1l12.2-14.7,1,6c-.6.1-1,.6-1,1.2ZM542.4,401c0,0-.1,0-.2,0l-1-6,1-1.2,12.5-2.4.2,1.3-11.5,8.8c-.2-.3-.6-.5-.9-.5ZM556.6,391l-1.9.4-.3-1.9,2.2,1.1c0,0,0,.2,0,.3s0,0,0,.1ZM554.7,391.4l-12.5,2.4,6.1-7.4,6.1,3.1.3,1.9ZM557.7,410.3c-.2,0-.3.1-.4.3l-13.8-7.7c0-.2.1-.4.1-.6s0-.5-.2-.7l11.5-8.8,2.8,17.5ZM554.9,392.7l-.2-1.2,1.9-.4c0,0,0,.2.1.2l-1.8,1.4ZM553.4,381.9l3.5,8.5c-.1,0-.2.1-.3.3l-2.3-1.2-1.2-7.6c0,0,.2,0,.2,0ZM553,381.9c0,0,.1,0,.2,0l1.2,7.6-6-3.1,3.9-4.7c.2.2.5.3.8.3ZM552,381.4c0,.1.1.2.2.3l-3.9,4.7-2.4-1.2,6.1-3.8ZM545.9,385.2l2.4,1.2-6.1,7.4-1.2.2-.9-5.2,5.8-3.6ZM539.4,381.9l6.5,3.3-5.8,3.6-1.1-6.3c.2,0,.4-.3.4-.6ZM539,381.3c0,0-.1,0-.2,0-.3,0-.6.3-.6.6s.1.4.3.5l-3.4,9.5-6.7,4.2c-.2-.3-.6-.6-1-.6s-.7.2-1,.5l-104.6-78.2c0,0,.1-.2.1-.3s0-.2,0-.3l13.2-7.8,14,7.3c0,0,0,.2,0,.3,0,.3.3.6.6.6s.6-.3.6-.6-.3-.6-.6-.6-.3,0-.4.1l-8.3-10.5,37.6-22.3c.1.2.3.3.5.3.3,0,.6-.2.6-.5l114.6,9.3-55.3,88.8ZM670.3,240.8c-.2,0-.4,0-.5.1l-8.7-17.2,4.1-3.6,6.2,3.4-1,17.2s0,0,0,0ZM660.9,223.3l3.4-3.6.9.5-4.1,3.6-.2-.4ZM661.1,223.8l-3.6,3.2s0,0,0,0l3.4-3.6.2.4ZM674.8,225.6c0,.2-.1.4-.1.6,0,.5.3,1,.8,1.1l-4.8,13.6c0,0-.2,0-.3,0l1-17.2,3.4,1.9ZM671.4,223.6l-6.2-3.4,6.7-5.8-.5,9.3ZM671.9,214.3v-1.2c0,0,1.6-.3,1.6-.3l-1.6,1.4ZM673.7,212.8l1.2-1,3.3.3-4.5.7ZM705.7,213.9c-.3,0-.5.3-.5.5l-26.9-2.3,19.1-3.2c0,.6.6,1,1.2,1s1.2-.5,1.2-1.2-.4-1.1-1-1.2l2.9-14.8s0,0,.1,0,0,0,0,0l3.8,21.2ZM720.4,172.1s0,0,0,0l-18.2,19.4c-.1,0-.2-.2-.4-.2-.2,0-.4.1-.5.3l-2.1-1.2,21.1-18.4ZM699.2,190.6l2.1,1.2c0,0,0,.2,0,.3,0,.3.2.5.5.6l-2.9,14.8c0,0-.1,0-.2,0-.3,0-.5,0-.7.2l-7.2-9.7,8.5-7.4ZM675.7,177.5c0,0,.1-.1.1-.2l23.4,13.2-8.5,7.4-15.1-20.4ZM690.7,198l7.2,9.7c-.3.2-.5.6-.5,1s0,0,0,.1l-21.8,2.4,15.1-13.2ZM675.6,211.2l21.8-2.4s0,0,0,0l-19.2,3.2-3.3-.3.7-.6ZM675.5,211.2l-.7.6-2.2-.2s0,0,0,0,0,0,0,0l2.8-.3ZM672.1,212.1c.3,0,.6-.2.6-.5l2.1.2-1.2,1-1.6.3v-1c0,0,0,0,0,0ZM671.7,212c0,0,.2.1.4.2v1c0,0-1.7.3-1.7.3l1.3-1.4ZM670.3,213.4l1.7-.3v1.2c0,0-6.8,5.9-6.8,5.9l-.9-.5,6-6.3ZM658.2,215.6c0,0,0-.1,0-.2l12.1-2-6,6.3-6.2-3.5c0-.2.1-.4.1-.6ZM658,216.2l6.2,3.5-3.4,3.6-3.3-6.6c.2-.1.4-.3.5-.5ZM657,216.8c.2,0,.4,0,.5-.1l3.3,6.6-3.4,3.6c-.1,0-.2-.2-.4-.2v-9.9ZM657,227.9c.3,0,.6-.3.6-.6s0-.3-.1-.4l3.6-3.2,8.7,17.2c-.1,0-.2.1-.3.2l-11.9-10.9c0-.1.1-.2.1-.4,0-.3-.3-.6-.6-.6s0,0,0,0v-1.4ZM656.7,230.4c.1.1.3.2.4.2s0,0,0,0l1,21.8c-.6,0-1.1.5-1.1,1.1l-24.4-.8,24.1-22.3ZM632.6,252.7l24.4.8s0,0,0,0c0,.2,0,.4.1.5l-55.2,27.3c0,0-.1-.2-.2-.3l30.8-28.5ZM623.2,252.8c0,0,.2.1.4.1.3,0,.6-.3.6-.6l8.3.3-30.8,28.5s0,0-.1-.1l21.6-28.2ZM739,304.2l-144.7-11.7,5.9-9.5c.2.1.4.2.6.2.7,0,1.2-.5,1.2-1.2s0-.4-.1-.5l55.2-27.3c.2.4.6.7,1.1.7s1.1-.5,1.2-1.1l29.8,3s0,0,0,0c0,.3.3.6.6.6s.3,0,.4-.2l49.1,46.4c-.2.2-.3.4-.3.7Z"/>
      <g class="st70">
        <circle class="st2" cx="84.3" cy="44.2" r="3.6"/>
        <circle class="st1" cx="198" cy="84.8" r="3.6"/>
        <path class="st4" d="M328.3,262c-1.1,0-1.9.9-1.9,1.9s.9,1.9,1.9,1.9,1.9-.9,1.9-1.9-.9-1.9-1.9-1.9Z"/>
        <path class="st9" d="M585.6,289.9c1.1,0,1.9-.9,1.9-1.9s-.9-1.9-1.9-1.9-1.9.9-1.9,1.9.9,1.9,1.9,1.9Z"/>
        <path class="st8" d="M595,189.9c0,1.1.9,1.9,1.9,1.9s1.9-.9,1.9-1.9-.9-1.9-1.9-1.9-1.9.9-1.9,1.9Z"/>
        <path class="st5" d="M268.5,105.7c1.1,0,1.9-.9,1.9-1.9s-.9-1.9-1.9-1.9-1.9.9-1.9,1.9.9,1.9,1.9,1.9Z"/>
        <circle class="st7" cx="593.1" cy="374.2" r="1.9"/>
        <path class="st6" d="M120.4,114.8c1.1,0,1.9-.9,1.9-1.9s-.9-1.9-1.9-1.9-1.9.9-1.9,1.9.9,1.9,1.9,1.9Z"/>
        <path class="st3" d="M166.4,28.9c1.1,0,1.9-.9,1.9-1.9s-.9-1.9-1.9-1.9-1.9.9-1.9,1.9.9,1.9,1.9,1.9Z"/>
        <path class="st48" d="M739,471.7c0-.8-.3-1.5-.7-2.1l68.4-51.6c.7.8,1.7,1.4,2.8,1.4,2,0,3.6-1.6,3.6-3.6s0,0,0,0l125.1-2.5h0c0-.1-125.1,2.4-125.1,2.4,0-.7-.3-1.4-.7-2l102.4-77.3h0c0,0-102.4,77.2-102.4,77.2-.7-.8-1.7-1.4-2.8-1.4s-1.1.1-1.5.3l-52.2-106.5c.6-.3,1-1,1-1.7s0-.6-.2-.9l142.9-82.8h.2c0-.1-137.6,4.6-137.6,4.6,0-1.5-1.1-2.8-2.5-3.2l33.9-110.1h-.1s-33.9,110.1-33.9,110.1c-.3,0-.7-.1-1-.1-.8,0-1.6.3-2.2.8l-52.8-65.1,31.4-46.1h0c0,0-31.3,46-31.3,46l-20.9-25.7h0c0,0,20.9,25.8,20.9,25.8l-38.5,56.5c-.6-.4-1.2-.6-2-.6s-.6,0-.9.1l-25.8-97.5h-.1s25.8,97.6,25.8,97.6c-1.5.4-2.6,1.8-2.6,3.4s0,0,0,0l-84.9,1.4c0-1.7-1.3-3.1-3-3.4l27.4-170.9h0c0-.1-97.3,66.2-97.3,66.2l-16.7-55.3h-.1s16.7,55.3,16.7,55.3l-43.3,29.5c-.6-.9-1.7-1.5-2.9-1.5-2,0-3.6,1.6-3.6,3.6s1.5,3.5,3.4,3.6l-3.2,65.8s0,0-.1,0c-.8,0-1.5.3-2.1.7l-67.1-88.9c.4-.3.7-.9.7-1.5,0-.9-.6-1.6-1.3-1.8l9.1-32.3h-.1s-9.1,32.3-9.1,32.3c-.1,0-.3,0-.5,0-1.1,0-1.9.9-1.9,1.9s.9,1.9,1.9,1.9.8-.1,1.1-.4l67.1,88.9c-.7.5-1.2,1.3-1.3,2.2l-100.7-15.3c0,0,0-.2,0-.2,0-1-.7-1.7-1.6-1.9l8.5-71.2h-.1s-8.5,71.2-8.5,71.2c0,0-.1,0-.2,0-.1,0-.2,0-.3,0l-30.6-141.9v-.3c0,0-21.8,172.3-21.8,172.3,0,0-.1,0-.2,0-.3,0-.6,0-.8.2l-40.7-78.5c1.1-.6,1.9-1.8,1.9-3.2,0-2-1.6-3.6-3.6-3.6s-3.6,1.6-3.6,3.6,1.2,3.1,2.8,3.5l-18.8,87.4c-.2,0-.5,0-.7,0-.9,0-1.7.3-2.3.8l-73.9-86.6c.4-.3.6-.8.6-1.4,0-1.1-.9-1.9-1.9-1.9s-1.7.7-1.9,1.5l-106.1-18.2h-.4c0,0,70.3,36.1,70.3,36.1-.2.5-.4,1-.4,1.6,0,2,1.6,3.6,3.6,3.6s1-.1,1.5-.3l33.7,70.8c-.6.3-1,1-1,1.7s.7,1.7,1.6,1.9l-4.1,32.1c-.1,0-.3,0-.4,0-1.1,0-2.2.5-2.8,1.4l-109.2-83.9c.4-.6.7-1.3.7-2.1,0-2-1.6-3.6-3.6-3.6s-1.4.2-1.9.6L-7.3,131.9h0c0,0,38.6,58.7,38.6,58.7-.9.6-1.6,1.7-1.6,3,0,2,1.6,3.6,3.6,3.6s2.2-.5,2.8-1.4l109.2,83.9c-.4.6-.7,1.3-.7,2.1s0,.2,0,.3l-72.8,9.3c-.1-.9-.9-1.6-1.9-1.6s-1.9.9-1.9,1.9.6,1.7,1.5,1.9l-10.2,56.5c0,0-.2,0-.3,0-1.1,0-1.9.9-1.9,1.9s0,0,0,.1l-111,13.3h0c0,.1,111-13.2,111-13.2,0,.6.4,1.1.9,1.4l-36.2,59.8h0c0,0,36.2-59.8,36.2-59.8.3.2.6.2.9.2,1,0,1.9-.8,1.9-1.8l59.6,1.8s0,0,0,0c0,1.1.9,1.9,1.9,1.9s1.3-.3,1.6-.9l98.6,60.3c-.3.5-.5,1.2-.5,1.8s.1,1,.3,1.4l-157.6,70.2h0c0,.1,157.6-70.1,157.6-70.1.3.7.8,1.2,1.5,1.6l-71.5,130.4h0c0,0,71.5-130.4,71.5-130.4.5.3,1.1.4,1.7.4s1.2-.2,1.7-.4l30.5,55.5c-.6.3-.9.9-.9,1.6s.5,1.5,1.2,1.8l-26.6,79h0c0,0,0,0,0,0l124.8-14.7h0s36-133.1,36-133.1c.1,0,.3,0,.4,0,.9,0,1.6-.6,1.8-1.4l67.6,13.7c0,.2,0,.5,0,.7,0,2,1.6,3.6,3.6,3.6s1.4-.2,2-.6l70.9,103.5h0c0,0-70.9-103.6-70.9-103.6.9-.6,1.5-1.7,1.5-2.9s0-.6-.1-.9l79.9-20.2,15,19.6c-.4.3-.7.9-.7,1.5,0,1.1.9,1.9,1.9,1.9s.9-.2,1.2-.4l55.8,65.5c-.4.3-.6.9-.6,1.4,0,1,.7,1.8,1.6,1.9l-10.5,92.7h.1s10.5-92.7,10.5-92.7c0,0,.1,0,.2,0,.6,0,1.2-.3,1.5-.8l93.1,65.2h0c0,0-93.1-65.3-93.1-65.3.2-.3.3-.7.3-1s0-.2,0-.3l106.5-19.1c.3,1.6,1.8,2.9,3.5,2.9s1.1-.1,1.6-.4l38.6,72.2h0c0,0-38.6-72.2-38.6-72.2,1-.5,1.7-1.5,1.8-2.7l82.6,10.6h0c0-.1-82.6-10.7-82.6-10.7,0-.1,0-.2,0-.4ZM758.5,229.1c2,0,3.6-1.6,3.6-3.6s0,0,0,0l137.2-4.7-142.7,82.7c-.3-.5-.9-.8-1.5-.9l3.3-73.5s0,0,.1,0ZM703.4,157.7l52.8,65c-.8.7-1.3,1.6-1.3,2.7,0,1.9,1.5,3.5,3.4,3.6l-3.3,73.5s0,0,0,0c-.5,0-1,.2-1.3.6l-88.1-83.6c.6-.6.9-1.5.9-2.4s-.6-2.3-1.5-2.9l38.4-56.5ZM701.7,398.3l-81.7,14.3c-.1-.6-.4-1.2-.8-1.7l38.8-35.2c.3.4.8.6,1.4.6s1.3-.4,1.7-1l41,20.8c-.2.5-.4,1-.4,1.6s0,.4,0,.6ZM623.6,339.5c-2,0-3.6,1.6-3.6,3.5h-8.3c0-1.2-.6-2.2-1.5-2.8l69.3-98.5c.2.1.4.2.7.3l-20.7,130.6c0,0-.2,0-.2,0-.5,0-1,.2-1.4.6l-31.6-27.7c.5-.6.9-1.4.9-2.3,0-2-1.6-3.6-3.6-3.6ZM611.7,343.1h8.3c0,2,1.6,3.5,3.6,3.5s2-.5,2.7-1.2l31.6,27.7c-.3.3-.4.8-.4,1.2s0,.3,0,.5l-44.2,11.1-4.7-39.4c1.7-.2,3.1-1.7,3.1-3.5ZM657.5,375c0,.2.2.5.4.7l-38.8,35.2c-.7-.7-1.6-1.1-2.6-1.1s-.2,0-.4,0l-2.8-23.6,44.2-11.1ZM661,375.3c.1-.3.2-.5.2-.8s-.1-.8-.3-1.1l92.6-67.7c.2.2.3.4.6.5l-47.1,88.4c-.5-.3-1-.4-1.6-.4-1.4,0-2.6.8-3.2,1.9l-41-20.8ZM574.4,218.7s0,0,0,0l84.9-1.4c0,1.9,1.6,3.5,3.6,3.5s1.9-.4,2.6-1.1l88.1,83.6c-.3.3-.5.8-.5,1.3s.1.8.3,1.1l-92.6,67.7c-.3-.4-.7-.6-1.1-.7l20.7-130.6c0,0,.2,0,.2,0,1.1,0,1.9-.9,1.9-1.9s-.9-1.9-1.9-1.9-1.9.9-1.9,1.9.3,1.2.8,1.5l-69.3,98.5c-.6-.4-1.3-.6-2-.6s-.7,0-1,.1l-35.2-117.5c1.4-.5,2.5-1.8,2.5-3.4ZM571.8,222.1l35.2,117.5c-.7.2-1.2.6-1.7,1.1l-58-47.5c.3-.5.4-1.1.4-1.7,0-1.5-1-2.8-2.3-3.3l24.2-66.2c.4.1.8.2,1.2.2s.7,0,1-.1ZM604.7,344.2l-76.5,27.6c-.3-.7-1-1.2-1.8-1.2s-.8.1-1.2.4l-65.2-79.7c.4-.3.6-.8.7-1.3l79.8,1.6s0,0,0,0c0,2,1.6,3.6,3.6,3.6s2.5-.7,3.1-1.8l58,47.5c-.5.6-.8,1.4-.8,2.2s0,.8.2,1.2ZM421.5,369s0,0,0,0c0-1.4-.8-2.5-1.9-3.2l38.5-74.2c.2,0,.4.2.6.2l-5.3,78.3-31.9-1.1ZM453.4,370.2l-1.5,21.8c0,0-.1,0-.2,0-1.1,0-2.1.5-2.8,1.3l-28.2-22.2c.4-.6.7-1.2.7-2l31.9,1.1ZM458.8,291.8s0,0,0,0c.4,0,.8-.1,1.2-.4l65.2,79.7c-.4.3-.6.8-.7,1.3l-71.1-2.3,5.3-78.3ZM567.9,220.7l-25.8,18.2c-.3-.5-.9-.8-1.5-.8s-.3,0-.5,0l-6.2-20.6,33.4,1s0,0,0,0c0,.8.2,1.4.6,2ZM540,238.3c-.8.3-1.3,1-1.3,1.8s.9,1.9,1.9,1.9,1.9-.9,1.9-1.9-.1-.8-.3-1.1l25.8-18.2c.4.6,1,1,1.6,1.2l-24.2,66.2c-.4-.1-.8-.2-1.2-.2-.9,0-1.7.3-2.3.8l-87.4-71.5c.5-.6.7-1.3.8-2.1l78.5,2.4,6.2,20.6ZM598.8,44.4l-27.4,170.8c-.2,0-.3,0-.5,0-1.9,0-3.5,1.5-3.6,3.4l-33.4-1-32.3-106.9,97.1-66.2ZM455.2,145.7s0,0,.1,0c2,0,3.6-1.6,3.6-3.6s-.2-1.4-.6-2l43.2-29.5,32.2,106.9-78.5-2.4s0,0,0,0c0-1.9-1.5-3.5-3.4-3.6l3.2-65.8ZM451.7,218.7c1.1,0,2.1-.5,2.7-1.3l87.4,71.5c-.7.6-1.2,1.5-1.2,2.6l-79.8-1.6c0-1-.9-1.9-1.9-1.9s-1.9.9-1.9,1.9.4,1.3,1,1.7l-38.5,74.2c-.2-.1-.5-.2-.8-.3l32.3-146.8c.2,0,.5,0,.7,0ZM450.9,218.6l-32.3,146.8c-.2,0-.5,0-.7,0s-.4,0-.7,0l-18.2-90.4,50.3-57.2c.4.4.9.6,1.5.8ZM414.4,369.8l-185.4,46.2c-.2-.7-.5-1.3-1-1.7l48.1-54,35.4,11.7c0,.2,0,.4,0,.5,0,1.1.9,1.9,1.9,1.9s1.9-.9,1.9-1.9-.2-1-.6-1.4l41.6-47.4,58.7,43.1c-.4.6-.7,1.3-.7,2.1s0,.6,0,.8ZM208.1,335.8l4.1-18.7,68.6,37.7-4.8,5.4-66.6-22c0-.2,0-.4,0-.5,0-.9-.6-1.6-1.4-1.8ZM326.1,303.9l-45.2,50.7-68.7-37.7,6-27.1,107.3,12.5c0,0,0,.1,0,.2,0,.5.2,1,.6,1.4ZM393.2,255.4l-64.3,46c-.3-.5-.9-.8-1.5-.8s-.5,0-.8.2l-33.2-70c.5-.2.8-.7,1-1.2l98.5,24.3c0,.1,0,.3,0,.4,0,.4.1.8.3,1.1ZM329,303.6c.2-.3.3-.7.3-1.1s-.1-.8-.3-1.1l64.3-46c.3.5.9.8,1.5.8s.2,0,.3,0l3.8,18.9-42.7,48.6-27.2-20ZM356.2,323.7l-41.6,47.4c-.2-.2-.5-.3-.8-.4l13.4-66.3c.1,0,.2,0,.3,0,.6,0,1.2-.3,1.5-.7l27.2,20ZM327,304.4l-13.4,66.3c-.1,0-.2,0-.3,0-.7,0-1.3.4-1.6.9l-30.7-16.9,45.2-50.7c.2.2.5.3.8.4ZM311.6,371.7c0,0,0,.1,0,.2l-35.4-11.7,4.8-5.4,30.7,16.9ZM212.1,316.9l-60.9-33.5c.2-.4.3-.8.4-1.3l66.5,7.7-6,27ZM212.1,317l-4.1,18.7c-.1,0-.2,0-.4,0-.5,0-1,.2-1.3.6l-55.6-52.1c.2-.2.3-.4.5-.6l60.9,33.5ZM356.3,323.7l42.6-48.5,18.2,90.3c-.8.2-1.6.7-2.1,1.3l-58.7-43.1ZM449.3,217.8l-50.3,57.2-3.8-18.8c.8-.2,1.5-.9,1.5-1.9s-.1-.7-.3-1l52.4-36.1c.1.2.3.4.5.6ZM347.4,199.3l100.7,15.3c0,.2,0,.3,0,.5,0,.7.2,1.4.6,2l-52.4,36.1c-.3-.5-.9-.8-1.5-.8s-.9.2-1.2.4l-46.7-52.5c.3-.3.5-.6.6-1ZM314.6,55.5l30.5,141.6c-.8.2-1.4,1-1.4,1.8s.9,1.9,1.9,1.9.9-.2,1.2-.4l46.7,52.5c-.2.2-.4.5-.5.9l-98.5-24.3c0-.1,0-.3,0-.4,0-1-.7-1.7-1.6-1.9l21.7-171.7ZM229.1,243.7c2,0,3.6-1.6,3.6-3.6s-1.2-3.1-2.8-3.5l18.8-87.4c.2,0,.5,0,.7,0,.6,0,1.1-.1,1.6-.4l40.7,78.5c-.6.3-1,.9-1,1.7,0,1.1.9,1.9,1.9,1.9s.5,0,.8-.2l33.2,70c-.5.3-.9.8-1,1.4l-107.3-12.5,10.2-46.2c.2,0,.5,0,.7,0ZM228.3,243.6l-10.2,46.2-66.5-7.7c0-.1,0-.2,0-.3,0-.6-.1-1.1-.4-1.6l74.7-38.4c.5.9,1.3,1.6,2.3,1.8ZM152.7,246.1c0,0,.1,0,.2,0,1.1,0,1.9-.9,1.9-1.9s-.9-1.9-1.9-1.9-.5,0-.8.2l-33.7-70.8c1.2-.6,2-1.8,2-3.2s-1.6-3.6-3.6-3.6-2.6.8-3.2,1.9l-69.6-35.8,105.7,18.1c0,0,0,.2,0,.3,0,1.1.9,1.9,1.9,1.9s.9-.2,1.2-.4l73.9,86.6c-.7.7-1.2,1.6-1.2,2.7s.1,1.1.4,1.6l-74.7,38.4c-.5-1-1.5-1.7-2.7-1.9l4.1-32.1ZM122.3,351.8c-1,0-1.8.8-1.9,1.7l-59.6-1.8c0-.9-.7-1.6-1.5-1.8l10.2-56.5c0,0,.2,0,.3,0,1.1,0,1.9-.9,1.9-1.9s0-.1,0-.2l72.8-9.3c.1,1.3,1,2.5,2.2,2.9l-23.9,66.8c-.2,0-.3,0-.5,0ZM122.9,351.9l23.9-66.8c.4.1.8.2,1.2.2,1,0,1.9-.4,2.6-1.1l55.6,52.1c-.3.3-.5.8-.5,1.3s0,.2,0,.3l-81.6,15.4c-.1-.6-.6-1.2-1.2-1.4ZM225.5,413.3c-1.3,0-2.4.7-3,1.7l-98.6-60.3c.2-.3.3-.6.3-.9s0-.2,0-.3l81.6-15.4c.2.9.9,1.5,1.9,1.5s1.5-.5,1.8-1.3l66.5,22-48.1,53.9c-.6-.5-1.4-.9-2.3-.9ZM392.8,406.6c-1.1,0-1.9.9-1.9,1.9s.6,1.6,1.4,1.8l-36,133-124.7,14.7,26.6-79c.2,0,.4,0,.6,0,1.1,0,1.9-.9,1.9-1.9s-.9-1.9-1.9-1.9-.6,0-.9.2l-30.5-55.5c1.1-.6,1.8-1.8,1.8-3.1s0-.6,0-.8l185.4-46.2c.2.8.7,1.6,1.4,2l-22,35c-.3-.2-.7-.3-1-.3ZM393.9,406.9l22-35c.6.4,1.2.6,1.9.6,1.1,0,2.1-.5,2.8-1.3l28.2,22.2c-.5.6-.7,1.4-.7,2.2s0,.5,0,.7l-53.5,11.7c-.1-.4-.4-.8-.7-1.1ZM462.3,422.6l-67.6-13.7c0-.1,0-.2,0-.4s0-.2,0-.4l53.5-11.7c.4,1.6,1.8,2.8,3.5,2.8s1.1-.1,1.6-.4l10.9,21.4c-.9.5-1.6,1.3-1.8,2.4ZM469.3,422.4c-.4-1.5-1.8-2.6-3.4-2.6s-1.1.1-1.6.4l-10.9-21.4c1.1-.6,1.9-1.8,1.9-3.2s-1.4-3.4-3.3-3.6l1.5-21.8,71.1,2.3s0,0,0,0c0,1.1.9,1.9,1.9,1.9s.8-.1,1.1-.4l21.5,28.2-79.9,20.1ZM527.7,374c.4-.3.7-.9.7-1.5s0-.4,0-.6l76.5-27.6c.5,1.4,1.8,2.3,3.4,2.3s.2,0,.4,0l4.7,39.4-63.9,16.1-21.5-28.2ZM731.8,471.7c0,.2,0,.4,0,.6l-106.5,19.1c-.2-.9-.9-1.5-1.9-1.5s-.9.2-1.2.4l-55.8-65.5c.4-.3.6-.9.6-1.4,0-1.1-.9-1.9-1.9-1.9s-.8.1-1.1.4l-14.9-19.5,63.8-16.1,2.8,23.5c-1.8.2-3.1,1.7-3.1,3.6s1.6,3.6,3.6,3.6,2.6-.8,3.2-2l112.6,55.3c-.2.5-.3,1-.3,1.5ZM732.2,470.1l-112.6-55.3c.2-.5.3-1,.3-1.5s0-.4,0-.6l81.7-14.3c.3,1.7,1.8,2.9,3.5,2.9s.9,0,1.3-.2l27.5,67.4c-.8.3-1.4.9-1.8,1.7ZM735.4,468.1c-.5,0-.9,0-1.3.3l-27.5-67.4c1.3-.5,2.2-1.8,2.2-3.3s-.7-2.5-1.8-3.1l47.1-88.4c.3.1.5.2.8.2s.5,0,.8-.2l52.2,106.5c-1.2.6-2,1.8-2,3.2s.3,1.5.7,2.1l-68.4,51.6c-.7-.8-1.7-1.4-2.8-1.4Z"/>
      </g>
    </g>
    <g id="Layer_3">
      <g>
        <g class="st66">
          <path class="st73" d="M644.1,410.2c.2,1.6.7,3,1.3,4.3.7,1.2,1.6,2.2,2.7,3.1l-175.9,175.9c-12.2,1.8-24.3,2.6-35.8,2.2-12.4-.5-24.3-2.4-35.3-5.8l243-179.7Z"/>
          <path class="st75" d="M666.2,364.4c-4.1,4.6-7.7,9.4-10.9,14.1-3.1,4.7-5.7,9.4-7.6,13.9l-100.8,36.6c3.9-14.7,10.9-31.2,20.7-48.5,10.2-18,23.3-36.5,38.5-54.3l60.1,38.3Z"/>
          <path class="st76" d="M721.1,332.6c-1.7-.5-3.6-.6-5.8-.5-2.2.2-4.7.7-7.3,1.5-2.7.9-5.5,2.1-8.5,3.6-3,1.5-6,3.3-9.1,5.4l12.7-163.1c17.1-8.9,33.3-15.4,48.2-19.3,14.2-3.7,27-5.1,38.2-4.3,10.6.8,19.6,3.5,27,7.9,7,4.2,12.4,9.9,16.4,16.9l-111.7,151.7Z"/>
          <path class="st71" d="M725.3,334.9c-.3-.4-.7-.6-1.1-.9-.4-.2-.8-.5-1.3-.7-.2-.1-.5-.2-.7-.3-.1,0-.2,0-.4-.1-.1,0-.2-.1-.4-.1-.3,0-.5-.2-.8-.2-.1,0-.3,0-.4-.1-.1,0-.3,0-.4,0,0,0-.1,0-.2,0h-.2c-.1,0-.3,0-.4,0-.2,0-.3,0-.4,0h-.2s-.2,0-.2,0c-.2,0-.3,0-.5,0h-.5c-.3,0-.7,0-1,0-.7,0-1.3,0-2.1.2-.3,0-.7.1-1.1.2-.2,0-.4,0-.6.1-.2,0-.4,0-.6.1l26.8-50.1c.4,0,.7,0,1.1,0,.4,0,.7,0,1.1,0,.7,0,1.4,0,2.1,0,1.4,0,2.7.1,3.9.3.6.1,1.2.2,1.8.3l.9.2.8.2h.4c0,.1.4.2.4.2l.8.2.8.3h.4c.1.2.2.3.4.3l.7.3c.2.1.5.2.7.4.5.2.9.5,1.4.8.2.1.4.3.6.4.2.1.4.3.6.4.4.3.8.6,1.2,1,.8.6,1.4,1.4,2.1,2.1.6.8,1.2,1.6,1.7,2.5l-37.5,42.7Z"/>
          <path class="st72" d="M726.9,353.8c1.1-3.4,1.6-6.6,1.7-9.3l65.4-53.5c-1.7,8.5-4.7,17.7-8.7,27.2l-58.4,35.7Z"/>
          <path class="st74" d="M648.1,417.6c.8.6,1.6,1,2.6,1.4.1,0,.2,0,.4.1.1,0,.2,0,.3.1.1,0,.2,0,.4,0h.2c0,0,.2,0,.2,0,.1,0,.2,0,.4,0,.1,0,.3,0,.4,0,.2,0,.5,0,.8.1.1,0,.3,0,.4,0h.4c.1,0,.3,0,.4,0h.2s.2,0,.2,0c.1,0,.3,0,.4,0,.1,0,.3,0,.4,0,.3,0,.6,0,.9,0,.1,0,.3,0,.5,0,.2,0,.3,0,.5,0,.3,0,.6,0,.9-.1.2,0,.3,0,.5,0,.2,0,.3,0,.5,0h.2c0,0,.2,0,.2,0,.2,0,.3,0,.5,0,1.3-.3,2.7-.7,4.1-1.1.2,0,.4-.1.5-.2h.3c0,0,.3-.2.3-.2.2,0,.4-.1.5-.2.2,0,.4-.1.6-.2h.3c0-.1.2-.2.3-.2.2,0,.4-.2.6-.2.2,0,.4-.2.6-.2.2,0,.4-.1.6-.2,1.5-.7,3-1.4,4.6-2.2.2-.1.4-.2.6-.3.2-.1.4-.2.6-.3l.3-.2.3-.2c.2-.1.4-.2.6-.3.8-.5,1.6-.9,2.4-1.4.8-.5,1.6-1,2.4-1.5.2-.1.4-.3.6-.4,0,0,.2-.1.3-.2l.3-.2c.2-.1.4-.3.6-.4.2-.1.4-.3.6-.4,1.6-1.1,3.1-2.2,4.7-3.4l.3-.2.3-.2c.2-.2.4-.3.6-.5l.6-.5c.2-.2.4-.3.6-.5.2-.2.4-.3.6-.5.2-.2.4-.3.6-.5.2-.2.4-.3.6-.5.2-.2.4-.3.6-.5,1.5-1.3,3.1-2.7,4.6-4.1.4-.4.8-.7,1.2-1.1.2-.2.4-.4.6-.6.2-.2.4-.4.6-.6.8-.8,1.6-1.5,2.3-2.3,1.5-1.5,2.9-3.1,4.3-4.6,1.4-1.6,2.7-3.1,4-4.7,1.3-1.6,2.5-3.2,3.7-4.8l35,.7c-2.9,3.8-6,7.6-9.1,11.3-3.1,3.7-6.3,7.4-9.6,11-3.3,3.6-6.6,7.2-10,10.7-1.7,1.7-3.4,3.5-5.2,5.2-.4.4-.9.8-1.3,1.3-.4.4-.9.9-1.3,1.3-.9.8-1.7,1.7-2.6,2.5-7,6.7-14.3,13-21.6,18.9-3.7,3-7.4,5.9-11.1,8.6l-1.4,1-1.4,1-.7.5-.7.5-1.4,1c-1.9,1.3-3.8,2.6-5.7,3.9-1.9,1.3-3.8,2.5-5.7,3.7l-1.4.9-.7.4-.7.4-1.4.9-1.4.9c-3.8,2.3-7.6,4.4-11.4,6.4-.5.3-.9.5-1.4.7-.5.2-1,.5-1.4.7l-1.4.7c-.2.1-.5.2-.7.4l-.7.3-1.4.7-1.4.7-.7.3-.7.3-1.4.6c-3.8,1.7-7.5,3.1-11.2,4.4l-1.4.5c-.2,0-.5.2-.7.2l-.7.2-1.4.4-1.4.4c-.9.3-1.8.5-2.7.8-.5.1-.9.2-1.3.4-.4.1-.9.2-1.3.3-.9.2-1.8.4-2.7.6-.4,0-.9.2-1.3.3l-1.3.2h-.7c0,.1-.6.2-.6.2l-1.3.2-1.3.2c-.4,0-.9.1-1.3.2-.8,0-1.7.2-2.5.3-.4,0-.8,0-1.3,0h-1.2c0,0-.6,0-.6,0h-.6s-1.2,0-1.2,0c-.4,0-.8,0-1.2,0-.4,0-.8,0-1.2,0-3.2-.1-6.2-.5-9.1-1.2l68.1-68.1Z"/>
        </g>
        <path class="st64" d="M433.1,442.7l173.5-44.7-.5,1c0,.2-.2.4-.3.6-.1.3-.3.6-.4.8l-.9,2.1-.9,2.1c-.1.3-.2.5-.3.8,0,.2-.2.4-.2.6,0,.2-.1.4-.2.5-.1.3-.2.5-.3.8-.1.4-.2.7-.4,1-.2.6-.4,1.1-.6,1.7-1.3,3.8-2.2,7.1-2.9,10.2l-.3,1.2c0,.2,0,.5-.1.7s0,.3,0,.5c0,.1,0,.3,0,.5,0,.2,0,.5-.1.7l-.2,1.2c0,0,0,.2,0,.2,0,.1,0,.2,0,.3l-.2,1.7v1.1c-.1.1-.1.2-.1.4,0,.2,0,.5,0,.7h0c-.2,2.9-.2,5.5,0,7.8.3,2.4.7,4.6,1.4,6.5.6,1.9,1.5,3.6,2.7,5.2l.2.3.6.8c0,.1.2.2.3.3,0,0,.1.1.2.2l.4.5c.7.7,1.3,1.3,2,1.8,1.4,1.1,3,2.1,4.7,2.8l.5.2-99.9,99.9h-.7c-5.9.3-11.7.1-17.1-.4-2.6-.3-5.2-.7-8.3-1.3-.5-.1-1-.2-1.5-.3h-.6c-.2-.2-.4-.2-.7-.3-.5-.1-.9-.2-1.4-.3l-3-.8-1-.3c-5.4-1.7-10.5-3.9-15-6.7-4.8-2.9-9.2-6.4-13-10.6-3.9-4.3-7.4-9.3-10.3-15-.3-.5-.5-1.1-.8-1.6,0-.2-.2-.4-.3-.6l-1-2.3-1.4-3.6c-.1-.3-.2-.6-.3-.8l-.9-2.9c-.2-.6-.3-1.2-.5-1.8,0-.3-.1-.6-.2-.8,0-.3-.1-.5-.2-.8-.2-.6-.3-1.2-.5-1.9l-.6-2.8c-1.5-7.4-2.2-15.9-2-25.2,0-1.8.1-3.7.2-5.6,0-.5,0-1,0-1.5,0-.8.1-1.7.2-2.5,0-.4,0-.8.1-1.2,0-.4,0-.7.1-1.1,0-.9.2-1.8.3-2.7l.8-5.8,1-6c.2-1,.4-1.9.6-2.9,0-.4.2-.8.2-1.3l.3-1.3ZM603.5,400.5l-167.1,43.7c-.2.9-.4,1.9-.5,2.8l-1,6-.8,5.8c-.1.9-.2,1.8-.3,2.7,0,.4,0,.7-.1,1.1,0,.4,0,.8-.1,1.2,0,.8-.2,1.6-.2,2.4,0,.5,0,1,0,1.6-.1,1.8-.2,3.7-.3,5.5-.3,9.2.4,17.6,1.8,25l.6,2.8c.1.6.3,1.2.4,1.8,0,.3.1.5.2.8,0,.3.1.6.2.8.1.6.3,1.2.5,1.7l.9,2.9c0,.3.2.5.3.8l1.3,3.6,1,2.3c0,.2.2.4.3.6.2.5.5,1.1.7,1.6,2.8,5.7,6.1,10.7,10,15,3.7,4.1,8,7.7,12.7,10.6,4.4,2.7,9.4,5,14.7,6.7l1,.3,1,.3,2,.5c.4.1.9.2,1.3.3.2,0,.4.1.7.2h.5c.5.2,1,.3,1.4.5,3.1.6,5.7,1,8.2,1.3,5.2.6,10.6.8,16.2.6l97.1-97.1c-1.6-.7-3.1-1.6-4.4-2.6-.7-.5-1.4-1.2-2.1-1.8h0s-.5-.5-.5-.5c0,0-.1-.1-.2-.2-.1-.1-.2-.2-.3-.3l-.7-.8-.2-.3c-1.1-1.6-2.1-3.4-2.8-5.3-.7-2-1.2-4.2-1.5-6.6-.3-2.4-.3-5.1-.1-8,0-.2,0-.5,0-.7,0-.1,0-.2,0-.4v-1.1c.1,0,.3-1.7.3-1.7,0-.1,0-.3,0-.4,0,0,0-.1,0-.2l.2-1.2c0-.2,0-.5.1-.7,0-.1,0-.3,0-.4,0-.2,0-.3,0-.5,0-.2,0-.5.1-.7l.3-1.2c.7-3.1,1.6-6.5,2.9-10.4.2-.6.4-1.2.6-1.7.1-.3.2-.7.4-1,.1-.3.2-.6.3-.9,0-.2.1-.3.2-.5,0-.2.2-.4.2-.6.1-.3.2-.6.3-.8l.9-2.2.9-2.2c0-.1.1-.3.2-.4Z"/>
        <path class="st65" d="M761.4,289.5c-.8-1-1.8-1.9-2.8-2.7-.3-.2-.5-.4-.8-.6l-.8-.6-.9-.5c-.1,0-.3-.2-.4-.2l-.5-.2c-1.2-.6-2.6-1.1-4-1.6-1.5-.4-3-.7-4.7-.9-3.3-.4-7.1-.2-11.1.4-2.1.3-4.2.8-6.4,1.3-2.2.6-4.6,1.3-6.9,2.1-2.4.8-4.9,1.8-7.4,2.9-2.5,1.1-5.1,2.3-7.8,3.7-5.3,2.8-10.8,6-16.4,9.7-11.3,7.5-22.8,16.9-33.9,27.6l-24.9-38.1c19.8-19,40.6-35.4,60.9-47.8,9.9-6.1,19.5-11.1,28.7-15.2,4.5-2,8.9-3.7,13.2-5.2,4.2-1.4,8.3-2.6,12.2-3.6,3.9-.9,7.6-1.6,11.2-2,3.5-.4,6.9-.6,10.1-.6,6.2,0,11.8,1,16.6,2.8,2.3.9,4.5,1.9,6.5,3.1,2,1.2,3.8,2.6,5.4,4.2l.6.6c.2.2.4.4.6.6l1.1,1.2,1,1.3c.3.4.6.9,1,1.3,1.2,1.8,2.3,3.8,3.2,5.8l-42.6,51.1Z"/>
        <path class="st63" d="M609.6,456.1c4.7,1.9,10.3,2.5,16.7,1.7,1.6-.2,3.2-.5,4.8-.8,1.6-.3,3.3-.8,5-1.2.8-.2,1.7-.5,2.6-.8l1.3-.4c.4-.1.9-.3,1.3-.5,1.8-.6,3.5-1.3,5.3-2.1,7.1-3,14.6-6.9,22.2-11.7,3.7-2.3,7.5-4.9,11.2-7.6,1.9-1.3,3.7-2.7,5.6-4.2.9-.7,1.8-1.4,2.8-2.2l1.4-1.1c.5-.4.9-.8,1.4-1.1,1.8-1.5,3.6-3,5.4-4.6,1.8-1.6,3.6-3.2,5.4-4.8,1.8-1.6,3.6-3.3,5.3-5,1.8-1.7,3.5-3.5,5.2-5.2l.6-.7c.2-.2.4-.4.6-.7l1.3-1.3c.8-.9,1.7-1.8,2.5-2.7,1.7-1.8,3.3-3.6,4.9-5.4,1.6-1.8,3.2-3.7,4.7-5.5,1.5-1.9,3.1-3.7,4.6-5.6,1.5-1.9,2.9-3.8,4.4-5.7,1.4-1.9,2.8-3.9,4.2-5.8,2.7-3.9,5.3-7.8,7.7-11.7,4.8-8,8.9-15.9,12-23.4l51.2-29.7c-6.6,13.5-14.6,27.3-23.4,40.8-4.3,6.6-8.9,13.1-13.6,19.6-2.3,3.2-4.7,6.4-7.2,9.5-2.4,3.1-4.9,6.3-7.4,9.4-9.9,12.2-20.7,24.2-31.7,35.5-5.5,5.6-11.2,11.1-16.9,16.5-2.9,2.7-5.8,5.3-8.7,7.9-2.9,2.6-5.9,5.2-8.9,7.7-.7.6-1.5,1.3-2.2,1.9l-2.2,1.9c-1.5,1.2-3,2.5-4.5,3.7-3,2.4-6.1,4.8-9.1,7.2-6.2,4.7-12.4,9.2-18.6,13.4-12.8,8.7-25.7,16.4-38.4,22.7-3.3,1.6-6.5,3.2-9.7,4.6-.8.4-1.6.7-2.4,1.1l-2.4,1.1c-1.6.7-3.3,1.4-4.9,2-3.3,1.3-6.5,2.5-9.7,3.6-3.3,1.1-6.5,2.1-9.7,3-13.3,3.7-25.9,5.3-37,4.5l67.3-67.3Z"/>
        <g class="st69">
          <path class="st54" d="M540.4,525.2c7.1.4,14.7,0,22.6-1.4,7.6-1.3,15.6-3.3,23.8-6.1,15.4-5.1,31.8-12.9,48.1-22.4,15.4-9,31.2-19.9,46.3-31.9,7.4-5.9,14.8-12.1,22-18.5,7.2-6.4,14.2-13.1,21.1-20,6.9-6.9,13.6-14,20.1-21.3,6.5-7.3,12.9-14.8,19-22.5,12.4-15.6,23.9-31.9,33.7-48.2,10.4-17.2,19.2-34.7,25.6-51.3,3.4-8.9,6.2-17.6,8.3-26,2.2-8.8,3.5-17.3,4-25.3.5-8.4,0-16.3-1.4-23.5-1.6-7.6-4.3-14.3-8.3-20-8.6-12.4-23.1-19.6-42.9-20.1-21.9-.5-49.6,7.4-80.6,24-16.3,8.7-33.1,19.6-49.9,32.4-17.1,13-34.1,27.9-50.2,44-16.1,16.2-31.2,33.3-44.8,51-13.3,17.4-25,34.9-34.6,52.1-18.4,32.8-28.8,63-31.1,87.7-2.1,22.3,2.4,39.5,12.2,50.8,4.5,5.2,10,9.1,16.4,11.8,6.1,2.6,12.9,4,20.4,4.5l-2.3,2.3c-7.6-.4-14.7-1.8-20.9-4.4-6.6-2.7-12.4-6.6-17-11.8-10.2-11.4-15-28.7-13-51.4,2.1-25.2,12.5-56,31.2-89.6,9.8-17.6,21.7-35.7,35.3-53.5,13.9-18.1,29.3-35.8,45.9-52.3,16.6-16.6,33.9-31.8,51.5-45.1,17.3-13.1,34.5-24.2,51.2-33,31.7-16.8,60-24.7,82.3-23.9,20.1.7,34.7,8.3,43.3,21.1,4,5.9,6.7,12.8,8.2,20.6,1.4,7.4,1.8,15.5,1.2,24.1-.6,8.2-2,16.8-4.3,25.8-2.1,8.5-5,17.4-8.5,26.4-6.6,16.9-15.6,34.7-26.1,52.1-10,16.4-21.6,33-34.1,48.7-6.1,7.7-12.6,15.3-19.2,22.7-6.6,7.3-13.4,14.5-20.3,21.5-7,7-14.1,13.7-21.4,20.2-7.3,6.5-14.8,12.8-22.3,18.8-15.4,12.2-31.3,23.2-46.9,32.3-16.6,9.7-33.2,17.6-48.8,22.9-8.3,2.8-16.5,4.9-24.2,6.3-8.1,1.4-15.9,1.9-23.1,1.6l2.3-2.3Z"/>
          <path class="st53" d="M536.7,528.9c7.3.3,15.2-.2,23.4-1.7,7.8-1.4,16-3.5,24.5-6.4,15.8-5.4,32.6-13.4,49.3-23.2,15.7-9.2,31.8-20.3,47.2-32.6,7.6-6,15.1-12.3,22.4-18.9,7.3-6.5,14.5-13.3,21.5-20.3,7-7,13.9-14.2,20.5-21.6,6.7-7.4,13.1-15.1,19.3-22.9,12.7-15.9,24.4-32.5,34.4-49.1,10.7-17.6,19.8-35.5,26.4-52.6,3.6-9.1,6.5-18.1,8.7-26.7,2.3-9.1,3.8-17.9,4.4-26.2.6-8.7.3-17-1.1-24.5-1.5-7.9-4.2-15-8.2-21-8.7-13.2-23.4-21-43.6-21.8-22.5-.9-51.2,6.9-83.4,23.9-16.9,8.9-34.4,20.2-52,33.5-17.9,13.5-35.5,29-52.4,45.8-16.8,16.8-32.5,34.7-46.6,53.2-13.8,18.1-25.9,36.4-35.8,54.3-18.9,34.1-29.3,65.4-31.3,90.9-1.8,22.9,3.2,40.4,13.6,51.8,4.8,5.2,10.6,9.1,17.4,11.8,6.4,2.5,13.5,3.9,21.2,4.3l-.4.4c-7.8-.4-15-1.8-21.3-4.3-6.8-2.7-12.7-6.6-17.5-11.8-10.5-11.4-15.6-29-13.8-51.9,2-25.6,12.4-57,31.4-91.2,9.9-18,22-36.4,35.9-54.6,14.1-18.5,29.9-36.5,46.8-53.4,16.9-16.9,34.6-32.4,52.6-46,17.7-13.4,35.3-24.6,52.3-33.6,32.3-17,61.1-24.8,83.7-23.8,20.3.9,35,8.8,43.7,22,4,6,6.7,13.2,8.1,21.1,1.4,7.5,1.7,15.8,1.1,24.6-.6,8.3-2.1,17.1-4.4,26.2-2.2,8.7-5.1,17.7-8.7,26.8-6.7,17.2-15.8,35.1-26.5,52.7-10.1,16.6-21.8,33.3-34.5,49.2-6.2,7.8-12.7,15.4-19.4,22.9-6.6,7.4-13.5,14.7-20.5,21.7-7,7-14.2,13.8-21.5,20.4-7.4,6.6-14.9,12.9-22.5,18.9-15.5,12.3-31.6,23.4-47.3,32.7-16.7,9.8-33.6,17.8-49.4,23.2-8.4,2.9-16.7,5.1-24.6,6.5-8.3,1.5-16.2,2-23.5,1.7l.4-.4Z"/>
          <g>
            <path class="st50" d="M494.2,522.2c.6.5,1.2,1,1.9,1.4l1.9,1.3c.7.4,1.3.8,2,1.2l.5.3.5.3,1,.6c2.7,1.4,5.6,2.6,8.6,3.6l-.8.7c-3.1-1-6-2.2-8.7-3.6l-1-.5-.5-.3-.5-.3c-.7-.4-1.4-.8-2-1.2l-2-1.3c-.6-.5-1.3-1-1.9-1.4l.9-.7Z"/>
            <path class="st49" d="M477.5,490.3c1.7,7.9,4.5,14.8,8.4,20.5l-3.6,2.4c-4-5.8-7-12.7-8.8-20.7l4.1-2.2Z"/>
            <path class="st51" d="M482,435.7c-3.1,12.3-4.6,23.6-4.8,33.8l-7.5,3.3c0-10.5,1.4-22.2,4.5-34.9l7.9-2.2Z"/>
            <path class="st52" d="M511.1,360.9c-4.6,7.9-8.8,15.7-12.5,23.4-3.7,7.6-6.9,15-9.8,22.2l-2.1.3c2.9-7.3,6.2-14.8,9.9-22.5,3.7-7.8,8-15.7,12.6-23.7l1.9.2Z"/>
            <path class="st56" d="M574.5,277.6c-7,7.8-13.8,15.7-20.3,23.8l-4.8,6-4.7,6.1c-.8,1-1.5,2-2.3,3l-2.2,3c-.7,1-1.5,2-2.2,3l-2.2,3-5.2-1.8,2.2-3.2c.7-1.1,1.5-2.1,2.3-3.1l2.3-3.1c.8-1.1,1.5-2.1,2.3-3.1l4.8-6.3,5-6.2c6.7-8.3,13.7-16.6,21-24.6l3.9,3.5Z"/>
            <path class="st55" d="M653.6,204.9c-7.9,5.8-15.8,11.9-23.6,18.4-7.9,6.6-15.6,13.4-23.3,20.6l-2.1-3.4c7.9-7.3,15.8-14.4,23.9-21.1,8-6.7,16.1-12.9,24.2-18.9l.9,4.3Z"/>
            <path class="st46" d="M731.5,160.3c-13.8,5.3-28.4,12.3-43.5,21.1v-3c15.3-9,30.1-16,44.1-21.3l-.6,3.2Z"/>
            <path class="st47" d="M791.7,148.5c-4.7-.4-9.7-.4-14.9,0-1.3.1-2.7.2-4,.4l-4.2.5-4.3.7c-1.4.2-2.9.6-4.4.9l.4-1.4c1.5-.3,3-.6,4.4-.8l4.3-.7,4.2-.5c1.4-.2,2.7-.2,4.1-.4,5.3-.4,10.3-.4,15,0l-.6,1.3Z"/>
            <path class="st11" d="M827.2,165c-2.4-2.3-5.1-4.4-8.1-6.3l-1.1-.7c-.4-.2-.8-.5-1.2-.7l-2.4-1.3-2.6-1.1c-.9-.4-1.8-.7-2.7-1l2.4-4.4c.9.4,1.8.7,2.7,1.1l2.6,1.2,2.4,1.3c.4.2.8.5,1.2.7l1.2.7c3,1.9,5.7,4.1,8.2,6.6l-2.5,3.9Z"/>
            <path class="st10" d="M842.9,195c-.6-3.5-1.5-6.8-2.5-9.9-1.1-3.2-2.4-6.3-4-9.2l1.6-2.2c1.6,2.9,2.9,6.1,3.9,9.3,1,3.2,1.9,6.6,2.5,10.1l-1.6,1.8Z"/>
            <path class="st13" d="M841.9,233.7c.6-3.9,1.1-7.7,1.5-11.4.3-3.8.5-7.5.5-11.1l2.3-2.5c0,3.7-.2,7.5-.6,11.4-.4,3.8-.9,7.7-1.6,11.6l-2.2,2Z"/>
            <path class="st27" d="M831,273.7c1.5-4,2.9-7.9,4.2-11.7,1.3-4,2.5-7.9,3.5-11.7l.9-.8c-1.1,3.9-2.3,7.9-3.6,11.8-1.3,3.9-2.7,7.8-4.2,11.8l-.8.6Z"/>
            <path class="st24" d="M811.9,314.1c.5-.9,1-1.9,1.5-2.8l1.5-2.8,1.5-2.9c.3-.5.5-1,.7-1.4l.7-1.4c1.9-3.9,3.8-7.7,5.5-11.5l1.3-.9c-1.8,3.9-3.7,7.8-5.6,11.7l-.7,1.4c-.2.5-.5,1-.7,1.4l-1.5,2.9-1.5,2.9c-.5,1-1,1.9-1.6,2.9l-1.2.6Z"/>
            <path class="st26" d="M787.8,352.4c.6-.9,1.2-1.8,1.8-2.7l1.8-2.7,1.8-2.7c.6-.9,1.2-1.8,1.8-2.7,2.4-3.6,4.7-7.3,6.9-10.9l2-.8c-2.3,3.7-4.6,7.4-7,11.1-.6.9-1.2,1.8-1.8,2.8l-1.8,2.7-1.8,2.7c-.6.9-1.2,1.8-1.9,2.7l-1.7.4Z"/>
            <path class="st28" d="M761.2,388.3c5.6-6.7,10.9-13.5,16.1-20.4h.4c-5.2,6.9-10.6,13.7-16.2,20.5h-.3Z"/>
            <path class="st25" d="M731,421.5c3-3.1,5.9-6.2,8.8-9.3,2.9-3.1,5.8-6.3,8.6-9.5l.8.3c-2.9,3.2-5.8,6.5-8.8,9.6-3,3.2-5.9,6.3-9,9.4l-.6-.6Z"/>
            <path class="st12" d="M698.9,452l1.2-1c.4-.3.8-.7,1.2-1.1l1.2-1.1c.4-.3.8-.7,1.2-1.1l2.4-2.1,2.4-2.1c3.1-2.9,6.2-5.8,9.3-8.7l.3.6c-3.1,3-6.2,5.9-9.4,8.8l-2.4,2.2-2.4,2.1c-.4.4-.8.7-1.2,1.1l-1.2,1.1c-.4.4-.8.7-1.2,1.1l-1.2,1.1v-.8Z"/>
            <path class="st23" d="M664.6,479.6c3.4-2.4,6.7-4.9,10.1-7.5,3.3-2.5,6.6-5.2,9.9-7.8v.4c-3.3,2.7-6.6,5.3-10,7.9-3.4,2.6-6.7,5.1-10.1,7.6v-.5Z"/>
            <path class="st29" d="M628.9,502.4c6.9-4,13.9-8.3,20.8-12.9l-.6,1.7c-7,4.7-14.1,9.1-21.2,13.1l.9-1.9Z"/>
            <path class="st30" d="M591.6,520.9c7.1-2.8,14.3-6.1,21.5-9.8l-.9,1.5c-7.3,3.7-14.6,7.1-21.8,10l1.2-1.7Z"/>
            <path class="st31" d="M553.9,532.3c3.5-.6,7.1-1.4,10.7-2.2l1.3-.3.7-.2.7-.2c.9-.2,1.8-.5,2.7-.7l2.7-.8c.9-.3,1.8-.6,2.7-.8l-.6.9c-.9.3-1.8.6-2.7.8l-2.7.8c-.9.3-1.8.5-2.7.7l-.7.2-.7.2-1.4.3c-3.6.9-7.2,1.7-10.8,2.3l.8-.9Z"/>
          </g>
        </g>
        <g class="st67">
          <path class="st34" d="M485.1,470.7l43.9-20.4v1.7c-.8,8-.4,15.2,1,21.5.2.6.4,1.3.5,1.9.2.8.4,1.7.7,2.5l1.5,4,1.9,3.7c0,.2.2.4.4.6l1.8,2.6c5.9,7.9,14.6,12.6,25.5,14.4l1.1.2-25.1,25.1h-1.2c-14.5-.9-26.7-5.2-35.7-13.6l-2.7-2.8c-.2-.2-.5-.5-.7-.8l-3.1-4-2.7-4.5c-.5-1-1-2.1-1.5-3.2-.3-.6-.6-1.2-.8-1.9-2.9-7.3-4.5-15.8-4.8-25.4v-1.7ZM523.7,456l-32.8,15.4c.2,8.8,1.7,16.6,4.2,23.2.3.6.5,1.2.8,1.9.4,1,.9,2.1,1.4,3.1l2.5,4.5,2.9,4c.2.3.4.5.6.7l2.6,2.8c8.3,8.1,19.6,12.5,33.2,13.6l19.1-19.1c-10.8-1.8-19.6-6.4-25.6-14.2l-1.9-2.6c-.2-.2-.3-.5-.5-.7l-2-3.7-1.6-4.1c-.3-.9-.5-1.7-.8-2.6-.2-.6-.4-1.3-.6-1.9h0c-1.5-6-2-12.8-1.6-20.3Z"/>
          <path class="st35" d="M450.1,358.2l54.8,4.1-1.6,2.9c-19.1,34.4-30.1,65.6-33.3,92.3-2.8,24,.9,42.7,9.9,56.1l.7,1-42.5,27.8-.9-.9c-14.2-14.2-22.2-35.4-22-63.9.3-32.5,11.1-71.8,33.4-116.1l1.6-3.2ZM495.6,367.6l-41.3-2.6c-20.9,41.7-31.2,78.9-32,109.8-.6,27.3,6.5,47.9,19.4,62l32.4-21.1c-9.1-13.4-12.9-32.1-10.4-56,2.9-26.6,13.4-57.8,31.9-92.1Z"/>
          <path class="st37" d="M559.5,211.4c12.4-12.4,25.1-24.1,38-35.1,23.2-19.6,46.8-36.6,69.9-50.5,44.6-26.9,84.9-41,118.4-43.1h2.2c0-.1-20.7,61.5-20.7,61.5l-2.1.4c-27.2,4.7-58.8,18.1-93.1,40.3-17.5,11.3-35.4,24.8-52.9,39.9-17.4,15.1-34.4,31.9-50.4,49.7l-2.6,2.9-38-32.4,2.9-3.3c9.2-10.4,18.7-20.4,28.4-30.2ZM780.9,91.2c-32.3,3-70.7,17.1-112.8,42.7-22.3,13.6-45.2,30.1-67.6,49.1-21.2,18.1-41.9,38.3-61.3,59.9l28.1,25.1c15.8-17.4,32.5-33.7,49.5-48.5,18.1-15.6,36.6-29.5,54.8-41.1,34.5-22.1,66.3-35.6,93.8-40.4l15.4-46.8Z"/>
          <path class="st32" d="M844.1,96.6l1.2.9c8.1,6,14.4,13.5,18.9,22.1,4.3,8.2,7.2,17.6,8.7,27.7,1.4,9.4,1.7,19.7.9,30.4l-.5,6.1c0,.6-.1,1.1-.2,1.8l-1.1,7.8h0c-.3,2-.7,3.9-1,5.8-.1.7-.3,1.4-.4,2,0,.2,0,.4-.1.7,0,.4-.2.9-.3,1.3l-1.6,7.3-23.8,22.2,1.1-6.2c0-.3,0-.6.1-.9,0-.2,0-.4,0-.6,0-.7.2-1.4.3-2.1.2-1.4.3-2.8.5-4.2l.4-6.3c0-.4,0-.8,0-1.3v-4.9c0-8.3-1-16.2-3-23.2-2.1-7.5-5.4-14.2-9.8-19.8-4.6-5.9-10.6-10.7-18.1-14.1l-1.2-.6,29-51.8ZM868.9,196.4l1-7.7c0-.6.1-1.1.2-1.6l.5-6c.7-10.4.3-20.3-1.2-29.5-1.6-9.8-4.6-18.8-8.9-26.7-4.3-7.9-10.2-14.7-17.7-20.2l-21.8,38.6c7,3.7,12.7,8.6,17,14.4,4.4,5.9,7.7,12.9,9.7,20.7,1.9,7.3,2.9,15.4,2.8,24.1v4.9c-.1.5-.1.9-.2,1.4l-.5,6.4h0c-.2,1.5-.4,2.9-.5,4.4,0,.7-.2,1.4-.3,2.1,0,.2,0,.4,0,.6,0,.4,0,.7-.2,1.1l-.6,3.5,18.1-16.9.9-4.4c0-.4.2-.8.2-1.2,0-.2,0-.5.1-.7.1-.6.2-1.3.4-2,.3-1.9.7-3.8,1-5.7Z"/>
          <path class="st36" d="M832.8,273.2l19.3-13.7-.6,1.4c-8.3,19.3-18.6,38.8-30.4,58.1-5.7,9.2-11.6,18.3-17.7,27.1-6,8.7-12.4,17.3-19,25.8l-.9,1.2-9.6.7.9-1.2c5.8-7.6,11.4-15.4,16.7-23.1,5.3-7.8,10.5-15.9,15.4-24.1,10.1-17,18.6-33.9,25.2-50.6l.6-1.4ZM848.5,263.9l-14.5,10.4c-6.7,16.5-15.3,33.3-25.3,50.1-5,8.4-10.2,16.6-15.6,24.5-5.1,7.5-10.5,14.9-16.1,22.3l7.2-.4c6.1-8,12.1-16.1,17.8-24.3,6-8.6,11.8-17.6,17.4-26.7,11.3-18.5,21.1-37.2,29.1-55.7Z"/>
          <path class="st33" d="M660.1,484l1.2-.9c14.7-10.5,29.1-22.1,43.2-34.7l4.2-3.8c.3-.3.6-.6.9-.9l5.2-4.8c1.1-1.1,2.3-2.2,3.4-3.3.6-.5,1.1-1.1,1.7-1.6.6-.6,1.3-1.2,1.9-1.9.2-.2.4-.4.6-.6l2.5-2.5c6.7-6.6,13.2-13.5,19.5-20.3l1-1.1,5.9,3.4-1,1.1c-7,7.6-14.2,15.1-21.6,22.4l-3.3,3.3c-.7.7-1.5,1.5-2.2,2.2l-1.2,1.2c-1.4,1.4-2.9,2.8-4.3,4.1h0s-5.6,5.3-5.6,5.3c-.4.4-.8.7-1.2,1.1l-4.6,4.2c-15.6,14-31.6,27.1-47.9,39l-1.2.8,2.9-11.7ZM726.8,428.4c-.5.5-1,1-1.5,1.4l-2.5,2.5c-.2.2-.4.4-.6.5-.7.7-1.3,1.3-2,2-.5.5-1.1,1-1.6,1.6-1.1,1.1-2.3,2.2-3.4,3.3h0s-5.1,4.8-5.1,4.8c-.3.3-.7.7-1.1,1l-4.2,3.8c-13.9,12.5-28.1,24-42.6,34.4l-2.3,8.8c15.7-11.5,31.2-24.1,46.2-37.6l4.6-4.2c.4-.3.7-.6,1-1l5.6-5.3c1.4-1.4,2.9-2.8,4.3-4.1l1.2-1.2c.7-.7,1.4-1.4,2.1-2.1l3.3-3.3c6.9-6.9,13.8-14,20.3-21.1l-4.5-2.4c-5.6,6.1-11.4,12.1-17.3,18Z"/>
          <path class="st38" d="M502.4,562.1l25.3-25.3h1.2c14.4.2,30.1-2.6,46.7-8l4.8-1.6c.4-.1.8-.3,1.1-.4l6-2.3,6-2.5c1.3-.5,2.6-1.1,3.9-1.7.7-.3,1.4-.6,2-.9,7.7-3.5,15.7-7.5,23.6-11.9l1.3-.7-7.7,15.4-1.2.7c-9,5.2-18.1,10-27,14.3-.7.3-1.3.6-1.9.9-1.6.8-3.3,1.6-4.9,2.3l-7,3.1-6.9,2.8c-.5.2-1,.4-1.5.6l-5.6,2.1c-19.7,7.2-38.8,11.7-56.8,12.9h-1.3ZM527,539.9l-18.9,18.9c17.1-1.1,35.3-5.4,54.2-12.2l5.5-2.1c.5-.2.9-.3,1.3-.5l6.9-2.8,6.9-3c1.6-.7,3.3-1.5,4.8-2.2.6-.3,1.3-.6,1.9-.9,8.4-4,16.9-8.5,25.3-13.3l5.8-11.6c-7.6,4.2-15.3,8.1-22.8,11.5-.7.3-1.4.6-2.1.9-1.3.6-2.7,1.2-4,1.8l-6.1,2.5-6,2.3c-.4.2-.9.3-1.3.5l-4.8,1.7c-16.5,5.5-32.2,8.5-46.7,8.6Z"/>
          <path class="st39" d="M599,263.1c8.5-8.5,17.3-16.7,26.3-24.6l2.7-2.4,15.6,35.5-2.4,2.2c-11.7,10.3-23.3,21.8-34.3,34-10.8,11.9-21,24.3-30,36.6-8.6,11.8-16.5,24.1-23.3,36.5-6.4,11.7-11.7,23.1-15.7,33.8l-.8,2.2-45.2,11.3.7-2.3c4.2-13.8,10.3-28.6,18-44,8.3-16.4,18.2-32.8,29.4-48.8,17-24.3,36.9-48,59-70.1ZM624.7,245.6c-30.3,27-57.5,57.3-79.8,89.1-10.8,15.4-20.5,31.3-28.6,47.1-7.2,14-12.9,27.6-17,40.3l34.2-8.3c3.9-10.4,9-21.5,15.2-32.8,7-12.9,15.1-25.7,24.1-37.9,9.3-12.8,19.8-25.7,31-38,10.7-11.8,21.9-22.9,33.2-33l-12.2-26.4Z"/>
          <path class="st40" d="M685.7,194l2.7-1.6c30.4-18,58.1-28.3,81.6-31.1,21.3-2.6,37.8,1.3,49.6,10.7l.9.7-26.4,41.2-1-.5c-10.5-5.5-24.5-6.7-41.7-3-18.7,4-40.1,13.3-63.1,27.8l-2.4,1.5v-45.7ZM815.3,176.5c-11.5-8.3-27.5-11.5-47.7-8.8-22.2,2.9-48.1,12.6-76.6,29.3l-.3,34.5c23-14.1,44.2-23.1,62.8-26.8,17.2-3.5,31.1-2.3,41.7,3.2l20-31.4Z"/>
          <path class="st41" d="M834.3,192.6l.4,1.1c2.2,6.3,3.5,13.4,3.9,21,.3,7-.2,14.8-1.4,23.1-2.3,15.4-7.2,31.7-14.3,48.4l-.6,1.4-19.7,13.3.5-1.4c5.3-13.7,8.7-26.8,9.7-39,.5-6.5.4-12.5-.4-17.7-.9-5.6-2.5-10.8-4.9-15.2l-.5-.9,27.2-34.2ZM821,286.4c6.5-15.9,11-31.3,13.1-45.8,1.2-8.1,1.6-15.7,1.2-22.4-.4-6.9-1.6-13.3-3.6-19.1l-20.4,25.5c2.1,4.4,3.5,9.4,4.3,14.9.7,5.4.8,11.6.2,18.4-1.1,12.1-4.5,25.1-9.7,38.7l14.9-10.1Z"/>
          <path class="st43" d="M791.6,324.8l16.5-8.2-.8,1.4c-8.5,15.4-18.4,30.8-29.4,45.9-10.5,14.4-22,28.6-34.5,42.4l-1,1.2-7-3.5,1.1-1.2c10.9-12.1,20.9-24.5,29.8-37,9.4-13.1,17.6-26.3,24.6-39.5l.7-1.4ZM804.7,320.3l-12.4,6.2c-7,13-15.2,26-24.4,38.9-8.8,12.3-18.6,24.5-29.3,36.4l5.2,2.7c11.9-13.2,22.9-26.8,32.9-40.6,10.5-14.4,19.9-29.1,28-43.8Z"/>
          <path class="st44" d="M640.9,481.4l1.3-.7c12.3-7,24.8-15.4,37.3-25,6-4.6,12-9.6,17.9-14.7,6.1-5.3,11.9-10.6,17.4-15.9l1.2-1.1,3.8,6.8-1.1,1.1c-6.2,6-12.9,12.2-19.8,18.2-6.8,5.9-13.7,11.6-20.6,17-14.3,11.2-28.8,21.1-43.1,29.6l-1.3.7,7-16ZM714.1,427.2c-5.2,5-10.7,10-16.5,15.1-6,5.2-12.2,10.2-18.3,15-12.3,9.5-24.6,17.8-36.7,24.8l-5.4,12c13.7-8.1,27.5-17.6,41.2-28.3,6.8-5.3,13.6-10.9,20.3-16.7,6.4-5.6,12.6-11.3,18.4-16.9l-3-5Z"/>
        </g>
        <path class="st61" d="M604.4,306.6c.6-.6,1.5-.9,1.9-.5.4.4.3,1.3-.4,2l-.3.3c-.7.7-1.6,1-2,.6-.5-.4-.3-1.3.4-2l.3-.3s0,0,.1-.1ZM636.1,275s0,0,.1-.1l.3-.3c.7-.6,1.5-.7,1.8-.2.3.6,0,1.5-.8,2.2l-.3.3c-.7.6-1.5.7-1.8.2-.3-.5,0-1.4.7-2.1ZM576.3,340.9c.6-.6,1.3-.9,1.8-.7.6.2.6,1,0,1.7l-.3.3c-.5.7-1.5,1.2-2.1,1-.6-.2-.6-1,0-1.7l.3-.3c0-.1.2-.2.3-.3ZM669.6,247.7c0,0,.2-.2.3-.3l.3-.2c.7-.5,1.4-.4,1.5.3,0,.7-.4,1.7-1.1,2.2l-.3.2c-.7.5-1.4.4-1.5-.3,0-.6.3-1.4.8-1.9ZM553.8,375.4c.5-.5,1.1-.8,1.6-.8.7,0,.9.6.5,1.3l-.2.3c-.4.7-1.3,1.3-2,1.3-.7,0-.9-.6-.5-1.3l.2-.3c.1-.2.2-.4.4-.5ZM702.6,226.7c.2-.2.3-.3.5-.4l.3-.2c.7-.4,1.2,0,1.1.7,0,.8-.7,1.7-1.4,2.1l-.3.2c-.7.4-1.2,0-1.1-.7,0-.6.4-1.3.9-1.7ZM537.9,407.7c.4-.4.9-.7,1.4-.8.8-.1,1.1.3.9.9v.3c-.4.7-1.2,1.3-2,1.5-.8.2-1.1-.3-.9-.9v-.3c.2-.2.4-.5.6-.7ZM732.8,212.8c.2-.2.5-.4.7-.5h.3c.6-.3.9.2.7,1-.2.8-.9,1.7-1.5,1.9h-.3c-.6.3-.9-.2-.7-1,.1-.5.5-1.1.9-1.4ZM528.8,436.2c.3-.3.7-.6,1.1-.7.8-.3,1.3,0,1.1.5v.3c-.2.6-.9,1.2-1.7,1.5-.8.3-1.3,0-1.2-.5v-.3c.1-.3.3-.6.6-.8ZM758.9,206.2c.3-.3.5-.4.8-.5h.2c.5,0,.6.5.3,1.3-.3.8-1,1.5-1.5,1.6h-.2c-.5.1-.6-.5-.3-1.3.2-.4.5-.8.8-1.1ZM526,459.8c.2-.2.5-.4.8-.6.7-.4,1.3-.3,1.3.2v.2c0,.5-.6,1.1-1.3,1.5-.7.4-1.3.3-1.3-.1v-.2c0-.3.2-.6.5-.9ZM779.9,206.1c.3-.3.6-.5.9-.5h.2c.4,0,.4.8,0,1.6-.4.8-1.1,1.4-1.5,1.3h-.2c-.4,0-.4-.8,0-1.5.2-.3.4-.6.6-.8ZM528.8,478.3c.2-.2.3-.3.6-.4.7-.4,1.3-.5,1.4-.2v.2c.2.3-.3,1-1,1.4-.7.4-1.3.5-1.4.2v-.2c-.1-.2,0-.6.4-1ZM795.7,211.6c.3-.3.7-.5.9-.4h.1c.3.2.1,1-.3,1.7-.5.7-1.1,1.1-1.4,1h-.1c-.3-.2-.1-1,.3-1.7.1-.2.3-.4.5-.6ZM536.2,491.6c.1-.1.2-.2.3-.3.6-.5,1.3-.6,1.5-.4h0c.2.3-.1.9-.7,1.4-.6.5-1.3.6-1.5.4h0c-.2-.3,0-.7.4-1.1ZM806.3,221.5c.4-.4.7-.5.9-.3h0c.2.4,0,1.1-.5,1.7-.5.6-1,.9-1.2.7h0c-.2-.4,0-1.1.5-1.7,0-.1.2-.2.3-.3ZM547.1,500s0,0,.2-.1c.5-.5,1.2-.7,1.4-.6h.1c.3.2,0,.7-.5,1.1-.5.5-1.2.7-1.4.6h-.1c-.2-.2,0-.6.3-1ZM812.3,234.9c.4-.4.8-.5.9-.2h0c0,.5-.2,1.2-.7,1.7-.5.5-.9.7-1,.4h0c0-.5.2-1.2.7-1.7,0,0,0-.1.1-.2ZM560.6,504.2h0c.5-.5,1.1-.8,1.4-.7h.1s0,0,0,0c0,0,0,0,0,0h.1c.3,0,.2.5-.2.9h0c-.5.5-1.1.8-1.4.7h-.1s0,0,0,0c0,0,0,0,0,0h-.1c-.3,0-.2-.5.3-.9ZM814.2,250.7c.5-.5.8-.5.8-.2v.2c0,.4-.4,1-.8,1.5-.5.5-.8.5-.8.2v-.2c0-.4.4-1,.8-1.5ZM812.7,268s0,0,.1-.1c.4-.4.7-.4.6,0v.2c0,.4-.5,1-.9,1.4-.4.4-.7.4-.6,0v-.2c0-.3.4-.9.8-1.3ZM576.1,504.6c.4-.4.9-.7,1.2-.7h.2c.3,0,.3.3,0,.7-.4.4-1,.8-1.3.8h-.2c-.3,0-.3-.3,0-.7,0,0,0,0,.1-.1ZM808.2,286.2c0,0,.2-.2.2-.2.4-.3.6-.2.5.2v.2c-.2.4-.6,1-1,1.3-.4.3-.6.2-.5-.2v-.2c.2-.3.4-.7.7-1ZM592.7,501.9c.3-.3.7-.6,1-.6h.2c.4-.1.4.1.1.5-.3.4-.8.8-1.2.9h-.2c-.4.1-.4-.1-.1-.5,0,0,.1-.2.2-.2ZM801.4,304.9c.1-.1.2-.2.3-.3.4-.2.5,0,.3.3v.2c-.3.4-.7.9-1,1.1-.3.2-.5,0-.3-.3v-.2c.2-.3.4-.6.7-.9ZM609.9,496.5c.3-.3.6-.5.8-.6h.2c.4-.2.5,0,.3.3-.2.4-.7.8-1.1.9h-.2c-.4.2-.5,0-.3-.3,0-.1.2-.2.3-.3ZM792.5,323.7c.1-.1.3-.3.4-.3.3-.2.4,0,.2.4v.2c-.3.4-.7.9-1,1-.3.2-.4,0-.2-.4v-.2c.2-.2.4-.5.6-.7ZM627.4,488.8c.2-.2.4-.4.7-.5h.2c.4-.3.5-.2.4.2-.2.3-.6.7-1,.9h-.2c-.4.3-.5.2-.4-.2,0-.1.2-.3.3-.4ZM782,342.4c.2-.2.4-.3.5-.4.3-.1.3.1,0,.5v.2c-.4.4-.8.8-1,.9-.3.1-.3-.1,0-.5v-.2c.2-.2.4-.4.5-.5ZM645,479.3c.2-.2.3-.3.5-.4h.2c.4-.3.6-.3.5,0-.1.3-.5.7-.9.9h-.2c-.4.3-.6.3-.5,0,0-.2.2-.3.4-.5ZM770.1,360.6c.2-.2.4-.4.6-.4.2,0,.2.2,0,.6v.2c-.4.4-.8.7-1,.8-.2,0-.2-.2,0-.6v-.2c.2-.1.3-.3.5-.4ZM662.5,468.2c.1-.1.3-.2.4-.3h.2c.4-.4.6-.4.6-.1,0,.3-.4.7-.8.9h-.2c-.4.4-.6.4-.6.1,0-.2.2-.4.4-.6ZM757.1,378.3c.2-.2.5-.4.6-.4.2,0,.1.3-.2.7v.2c-.4.4-.8.7-1,.7-.2,0-.1-.3.2-.7v-.2c.2,0,.3-.2.4-.3ZM679.6,455.8c0,0,.2-.2.3-.2h.2c.4-.4.6-.5.6-.3,0,.2-.3.6-.7.9h-.2c-.4.4-.6.5-.6.3,0-.2.2-.4.4-.7ZM743.1,395.4c.3-.3.6-.5.7-.4.1,0,0,.4-.3.7v.2c-.5.4-.8.6-1,.6-.1,0,0-.4.3-.7v-.2c.2,0,.2-.1.3-.2ZM696.3,442.2c0,0,.1,0,.2-.1h.2c.4-.4.7-.6.7-.4,0,.2-.2.6-.6.9h-.2c-.4.4-.7.6-.7.4,0-.1.2-.4.4-.7ZM728.2,411.8c.3-.3.6-.5.7-.4.1,0,0,.4-.4.8l-.2.2c-.3.3-.7.6-.8.5-.1,0,0-.4.4-.8v-.2c.2,0,.2,0,.2,0ZM712.5,427.5s0,0,0,0h.2c.3-.5.7-.6.7-.5,0,.1-.2.5-.5.8l-.2.2c-.3.3-.7.5-.7.4,0-.1.1-.5.5-.8Z"/>
        <path class="st62" d="M657.6,352.9c.8-.8,1.8-1.2,2.2-.8.4.4.1,1.4-.7,2.3l-.2.2c-.8.9-1.9,1.3-2.3,1-.5-.4-.2-1.4.7-2.3l.2-.3s0,0,.1-.1ZM683,329.7c.1-.1.3-.3.5-.4l.3-.2c.9-.7,1.7-.7,1.8,0,0,.7-.6,1.9-1.6,2.6l-.3.2c-.9.7-1.7.7-1.8,0,0-.6.4-1.5,1.1-2.2ZM636.9,379.9c.6-.6,1.3-1,1.8-1,.7,0,.9.7.3,1.6l-.2.3c-.6.9-1.7,1.7-2.4,1.8-.8,0-.9-.7-.3-1.6l.2-.3c.2-.3.4-.5.6-.8ZM708.4,314.3c.3-.3.7-.6,1-.7h.2c.8-.5,1.2,0,.9.9-.3.9-1.2,2-2,2.3h-.2c-.8.5-1.2,0-.9-.9.2-.5.6-1.1,1-1.6ZM625,404.9c.4-.4.8-.7,1.2-.9.9-.4,1.4,0,1.2.7v.2c-.3.8-1.2,1.7-2.1,2.1-.9.4-1.4.1-1.2-.7v-.2c.2-.4.5-.9.9-1.3ZM728.9,309.4c.5-.5,1-.8,1.4-.8h.2c.6,0,.6.8,0,1.7-.6.9-1.5,1.7-2.1,1.7h-.2c-.6,0-.6-.8,0-1.7.2-.3.5-.6.7-.9ZM623,423.9c.2-.2.4-.3.6-.5.9-.6,1.7-.7,1.8-.2h0c0,.7-.5,1.6-1.4,2.2-.9.6-1.7.7-1.8.2v-.2c-.1-.4.3-1,.8-1.6ZM741.5,314.4c.7-.7,1.3-.9,1.6-.7h0c.3.4,0,1.4-.8,2.2-.7.8-1.5,1.2-1.8.9h0c-.3-.4,0-1.3.8-2.2,0,0,.2-.2.2-.3ZM629.9,434.5s0,0,0,0c.7-.7,1.6-1.2,2-.9h.1c0,0,0,0,0,0,.4.2,0,1-.7,1.7-.7.7-1.6,1.2-2,.9h0s-.1,0-.1,0c-.4-.2,0-1,.7-1.7ZM745.6,327.1c0,0,.2-.2.2-.2.7-.6,1.3-.7,1.3-.2v.2c0,.5-.6,1.5-1.3,2.1-.7.6-1.3.7-1.3.2h0c0-.6.5-1.4,1.1-2ZM643.5,436.6c.5-.5,1.1-.9,1.6-.9h.2c.6,0,.6.5,0,1.2-.5.7-1.4,1.4-2,1.4h-.2c-.6,0-.6-.5,0-1.2.1-.2.3-.3.4-.5ZM742.1,344.7c.2-.2.5-.4.7-.5.7-.4,1-.2.7.5v.2c-.3.7-1,1.5-1.7,1.9-.6.4-1,.2-.7-.5v-.2c.2-.4.6-1,1-1.4ZM661.1,431.3c.3-.3.7-.6,1.1-.8h.2c.7-.4.9-.1.6.5-.3.6-1.1,1.4-1.7,1.7h-.2c-.7.4-.9.1-.6-.5.1-.3.4-.6.7-.9ZM732.3,364.8c.4-.4.8-.6,1.1-.7.5-.1.6.3.1,1v.2c-.6.7-1.3,1.4-1.8,1.5-.5.1-.6-.3-.1-1v-.2c.3-.3.5-.6.8-.8ZM680.6,420c.2-.2.4-.3.6-.5h.2c.7-.6,1.2-.6,1.1-.1,0,.5-.7,1.3-1.4,1.7h-.2c-.7.6-1.2.6-1.1.1,0-.3.4-.8.8-1.3ZM717.8,385.1c.5-.5,1.1-.8,1.3-.8.3,0,.2.7-.4,1.4l-.2.2c-.6.7-1.3,1.2-1.6,1.1-.3,0-.2-.7.4-1.4l.2-.2c0-.1.2-.2.3-.3ZM699.9,404.1s0,0,.1-.1l.2-.2c.7-.6,1.3-.9,1.4-.6.1.3-.3,1-.9,1.6l-.2.2c-.7.6-1.3.9-1.4.6-.1-.3.2-1,.8-1.5Z"/>
        <path class="st60" d="M603.3,249s0,0,0,0l.4-.3c.5-.5,1.1-.5,1.4-.1.3.4,0,1.1-.4,1.6s0,0,0,0l-.4.3c-.5.5-1.1.5-1.4.1-.3-.4,0-1.1.4-1.6ZM568.8,285.1c.5-.5,1.1-.6,1.4-.3.4.3.3,1-.2,1.5l-.3.4c-.4.5-1.1.7-1.5.4-.4-.3-.3-.9.1-1.5l.3-.4s0,0,0,0ZM640.5,216.7s0,0,.2-.1l.4-.3c.5-.4,1.1-.3,1.2.2.1.5-.2,1.2-.7,1.6l-.4.3c-.5.4-1.1.3-1.2-.2-.1-.5,0-1.1.5-1.5ZM538.2,323.7c.4-.4,1-.6,1.4-.4.5.2.5.7.1,1.3l-.3.4c-.4.5-1.1.8-1.5.7-.5-.2-.5-.7-.2-1.3l.3-.4c0,0,.1-.1.2-.2ZM677.9,190.2c0,0,.2-.2.3-.2l.4-.2c.5-.3.9-.1,1,.5,0,.6-.4,1.3-.9,1.6l-.4.2c-.5.3-.9.1-1-.5,0-.5.2-1,.6-1.4ZM513.3,362.1c.3-.3.8-.6,1.2-.5.5,0,.7.5.4,1l-.2.4c-.3.5-1,.9-1.5.9-.5,0-.7-.5-.4-1l.2-.4c0-.1.2-.2.3-.3ZM713.6,170.5c.1-.1.2-.2.4-.3l.3-.2c.5-.2.8.1.7.7,0,.6-.5,1.3-1,1.5l-.3.2c-.5.2-.8,0-.7-.7,0-.4.3-.9.6-1.2ZM494.9,398.6c.3-.3.7-.5,1.1-.5.6,0,.8.3.6.8v.3c-.4.5-1,.9-1.5,1-.6,0-.8-.3-.6-.8v-.3c.2-.2.3-.3.5-.4ZM745.9,158c.1-.1.3-.3.5-.3h.3c.4-.2.6.2.4.8-.2.6-.6,1.2-1.1,1.3h-.3c-.4.2-.6-.2-.5-.8.1-.4.3-.8.6-1.1ZM483.3,431.5c.2-.2.6-.4.9-.5.6-.2.9,0,.8.5v.3c-.2.4-.8.9-1.3,1-.6.2-.9,0-.8-.5v-.3c.1-.2.2-.3.4-.5ZM773.9,152.5c.2-.2.4-.3.5-.3h.3c.3,0,.4.4.2,1-.2.6-.7,1.1-1.1,1.2h-.2c-.3,0-.4-.4-.2-1,.1-.3.3-.6.5-.9ZM478,459.9c.2-.2.5-.4.7-.5.6-.2,1-.1.9.3v.3c0,.4-.5.8-1.1,1-.6.2-1,.1-.9-.2v-.3c0-.2.2-.4.3-.6ZM796.8,153c.2-.2.4-.3.5-.3h.2c.3,0,.3.6,0,1.2-.3.6-.7,1-1,1h-.2c-.3,0-.3-.6,0-1.1.1-.3.3-.5.5-.7ZM478.3,483.3c.2-.2.3-.3.6-.4.5-.3,1-.2,1,0v.2c0,.3-.3.7-.8,1-.5.3-1,.2-1,0v-.2c0-.2,0-.4.3-.6ZM814.7,158.8c.2-.2.4-.3.6-.3h.2c.2.2.1.7-.2,1.2-.3.5-.7.9-.9.8h-.2c-.2-.2-.1-.7.2-1.2.1-.2.2-.4.4-.5ZM483.3,501.7c.1-.1.3-.2.4-.3.5-.3.9-.3,1-.1v.2c.2.2-.1.6-.6.9-.5.3-.9.3-1,.1v-.2c-.1-.1,0-.4.2-.6ZM827.8,168.7c.2-.2.5-.3.6-.2h.1c.1.3,0,.8-.3,1.3-.3.5-.7.7-.8.6h-.1c-.1-.3,0-.8.3-1.3,0-.1.2-.3.3-.4ZM492,515.4c0,0,.2-.2.3-.2.4-.3.9-.4,1-.3h.1c.1.3,0,.6-.5.9-.4.3-.9.4-1,.3h-.1c-.1-.2,0-.5.2-.7ZM836.4,181.7c.2-.2.5-.3.5-.2h0c0,.3,0,.8-.4,1.3-.3.4-.6.6-.7.4h0c0-.3,0-.8.4-1.3,0,0,.1-.2.2-.2ZM503.8,524.6c0,0,.1-.1.2-.2.4-.3.8-.5,1-.4h.1c.2.2,0,.5-.4.8-.4.3-.8.5-1,.4h-.1c-.1-.2,0-.4.2-.6ZM841.1,197.2c.3-.3.5-.3.5-.1v.2c0,.2-.1.7-.5,1.1-.3.4-.6.5-.6.2v-.2c0-.2.1-.7.5-1.1,0,0,0,0,.1-.1ZM517.6,530s0,0,0,0c.3-.3.8-.5,1-.4h.1c.2,0,0,.4-.2.7-.3.3-.8.5-1,.4h-.1c-.2,0-.1-.3.2-.6ZM842.5,214.2c.3-.3.5-.3.5,0v.2c0,.2-.2.7-.5,1-.3.3-.5.4-.5.1v-.2c0-.2.2-.7.5-1,0,0,0,0,0,0ZM533,532.1s0,0,0,0c.3-.3.7-.5.9-.5h.2s0,0,0,0c0,0,0,0,0,0h.2c.2,0,.2.2-.1.5h0c-.3.3-.7.5-.9.5h-.2s0,0,0,0c0,0,0,0,0,0h-.2c-.2,0-.2-.2.1-.5ZM841,232.1s0,0,0,0c.3-.3.5-.3.4,0v.2c0,.3-.3.7-.6.9-.3.3-.5.3-.4,0v-.2c0-.2.3-.6.6-.9ZM549.5,531.3c.2-.2.6-.4.8-.5h.2c.2,0,.2.1,0,.4-.2.3-.6.5-.8.5h-.2c-.2,0-.2-.1,0-.4,0,0,0,0,0,0ZM837.2,250.6s0,0,0,0c.3-.2.4-.2.3,0v.2c-.1.3-.4.6-.6.9-.3.2-.4.2-.3,0v-.2c.1-.2.3-.5.5-.8ZM566.4,528.2c.2-.2.5-.4.7-.4h.2c.2,0,.3,0,0,.3-.2.2-.6.5-.8.6h-.2c-.2,0-.3,0,0-.3,0,0,0,0,.1-.1ZM831.4,269.3s0,0,.1-.1c.2-.2.3-.1.3.1v.2c-.2.3-.4.6-.7.8-.2.2-.3.1-.3-.1v-.2c.1-.2.3-.5.5-.7ZM583.6,523c.2-.2.4-.3.6-.4h.2c.2-.1.3,0,.1.2-.2.2-.5.5-.7.6h-.2c-.2.1-.3,0-.1-.2,0,0,0-.1.1-.2ZM824,287.9c0,0,.1-.1.2-.2.2-.1.3,0,.2.2v.2c-.2.3-.5.6-.7.7-.2.1-.3,0-.2-.2v-.2c.2-.2.3-.4.5-.6ZM600.8,516.2c.1-.1.3-.3.5-.3h.2c.2-.2.3,0,.2.1-.1.2-.4.5-.7.6h-.2c-.2.2-.3,0-.2-.1,0,0,.1-.1.2-.2ZM815.1,306.4c0,0,.2-.1.2-.2.2-.1.2,0,.1.3v.2c-.2.3-.5.5-.7.6-.2.1-.2,0-.1-.3v-.2c.2-.2.3-.3.4-.5ZM618,507.8c.1-.1.3-.2.4-.3h.2c.2-.2.3-.2.2,0-.1.2-.4.4-.6.6h-.2c-.2.2-.3.2-.2,0,0,0,.1-.2.2-.3ZM805.2,324.5c0,0,.2-.2.3-.2.2,0,.2,0,0,.3v.2c-.2.2-.5.5-.7.6s-.2,0,0-.3v-.2c.2-.1.3-.3.4-.4ZM634.9,498.3c0,0,.2-.2.3-.3h.2c.2-.2.4-.2.3,0,0,.2-.3.4-.6.6h-.2c-.2.2-.4.2-.3,0,0,0,.1-.2.2-.3ZM794.3,342.1c.1-.1.2-.2.3-.2.1,0,.1.1,0,.3v.2c-.3.2-.5.5-.7.5-.1,0-.1-.1,0-.3v-.2c.2-.1.3-.2.4-.3ZM651.6,487.8c0,0,.2-.2.3-.2h.2c.2-.3.4-.3.3-.1,0,.2-.3.4-.5.5h-.2c-.2.3-.4.3-.3.1,0,0,.1-.2.2-.3ZM782.6,359.3c.1-.1.3-.2.3-.2.1,0,0,.1,0,.4v.2c-.3.2-.5.4-.7.5-.1,0,0-.1,0-.4v-.2c.2,0,.2-.2.3-.2ZM667.9,476.3c0,0,.1-.1.2-.2h.2c.2-.3.4-.3.4-.2,0,.1-.2.4-.4.5h-.1c-.2.3-.4.3-.4.2,0,0,.1-.2.2-.4ZM770.1,376c.1-.1.3-.2.4-.2.1,0,0,.2-.1.4v.2c-.3.2-.5.4-.6.4-.1,0,0-.2.1-.4v-.2c.2,0,.2-.1.3-.2ZM683.9,464s0,0,.1-.1h.2c.2-.3.4-.3.4-.2,0,.1-.2.3-.4.5h-.2c-.2.3-.4.4-.4.2,0,0,.1-.2.3-.4ZM757.1,392.1c.2-.2.3-.3.4-.2,0,0,0,.2-.2.4v.2c-.3.2-.5.4-.6.4,0,0,0-.2.2-.4v-.2c.2,0,.2,0,.2-.1ZM699.4,450.9s0,0,0,0h.2c.2-.3.4-.4.4-.3,0,0-.1.3-.4.5h-.2c-.2.3-.4.4-.4.3,0,0,.1-.3.3-.4ZM743.4,407.7c.2-.2.4-.3.4-.2,0,0,0,.2-.2.5v.2c-.3.2-.5.3-.6.3,0,0,0-.2.2-.5v-.2c.2,0,.2,0,.2,0ZM714.5,437.2s0,0,0,0h.1c.2-.3.4-.4.4-.4,0,0-.1.3-.3.5h-.1c-.2.3-.4.4-.4.4,0,0,0-.3.3-.5ZM729.3,422.6c.2-.2.4-.3.4-.2,0,0,0,.3-.3.5h-.1c-.2.3-.4.5-.5.4,0,0,0-.3.3-.5h.1c0-.1,0-.2,0-.2Z"/>
        <g class="st68">
          <path class="st45" d="M540.2,504.2l120.7-103.8v.3c.5.9,1,1.6,1.7,2.3l.2.2-106,106h-.4c-5.9-.8-11.3-2.4-16-4.8l-.3-.2ZM660.1,401.9l-118,101.5c4.5,2.3,9.6,3.8,15.1,4.6l104.2-104.2c-.5-.5-1-1.2-1.3-1.9Z"/>
          <path class="st42" d="M351.5,273.3l1.9.6,318.9,98.6-.5.6c-1.5,1.9-3,3.9-4.3,5.9-1.3,2-2.5,4-3.4,5.9l-.3.6-373,111.7v-.9c-3.3-27.6-.8-59.9,8.2-95.8,9.8-39.2,27.1-81.9,51.7-125.7l.8-1.5ZM670.6,373.5l-317-96.1c-24,42.8-41,84.5-50.7,122.9-8.9,35.2-11.6,66.9-8.8,94.1l369.3-109.8c.9-1.8,2-3.7,3.3-5.6,1.2-1.8,2.5-3.7,4-5.5Z"/>
          <path class="st15" d="M740.6,36.7l1-.3c23.9-6.8,45.7-9.4,64.8-8.3h.7s-.5,1.6-.5,1.6l-109.7,322.3-.5.3c-1.7.8-3.4,1.8-5.1,2.9l-.6.4v-.5c0,0,49.9-318.4,49.9-318.4ZM804.5,31.2c-18.5-.9-39.5,1.7-62.5,8.3l-50.1,314.3c1.4-.9,2.8-1.7,4.2-2.4L804.5,31.2Z"/>
          <path class="st14" d="M867.2,165.9v.5c.9,10.4.4,21.7-1.4,33.4-1.6,11-4.3,22.5-7.9,34.2v.5c-.1,0-144.1,121.8-144.1,121.8v-.4c-.1-1.2-.5-2.2-1-3.2-.5-.9-1.2-1.7-2-2.2l-.3-.2.5-.6,156.1-183.9ZM857.2,234.2c3.5-11.4,6.1-22.6,7.6-33.4,1.7-11.5,2.2-22.5,1.3-32.7l-154,181.4c.8.5,1.4,1.3,1.8,2.1.5.9.8,1.9.9,3l142.3-120.4Z"/>
          <path class="st16" d="M709.1,371.5h.4c0-.1,80.8-22.6,80.8-22.6l-.3.4c-5.4,7.9-11.1,15.9-17,23.6l-.3.4-67.3,4.1.4-.5c1.1-1.6,2.1-3.2,3.1-4.8l.3-.5ZM789.2,349.9l-79.9,22.5c-.8,1.3-1.6,2.6-2.5,4l66.1-3.8c5.7-7.4,11.2-15,16.3-22.6Z"/>
          <path class="st21" d="M677.1,402.3l.5-.2c2.3-1.1,4.7-2.5,7.1-4.1,2.4-1.6,4.7-3.4,7-5.5l.5-.4v.3c0,0,11.1,39.4,11.1,39.4l-.4.4c-8.9,8-18,15.4-27.1,22.2-9.4,6.9-18.8,13.2-28.1,18.5l-.4.3,29.9-70.8ZM691.4,393.4c-2.3,2-4.5,3.7-6.8,5.2-2.3,1.6-4.7,3-6.9,4.1l-29.3,69.1c9.1-5.3,18.3-11.4,27.5-18.1,9-6.6,17.9-13.9,26.6-21.7l-11-38.6Z"/>
          <path class="st20" d="M466.5,598.7l195.9-195.9.2.2c.7.6,1.5,1.1,2.4,1.4h.3c0,0-.5.6-.5.6l-159,184.4h-.5c-12.9,4.1-25.8,7.2-38.3,9.2h-.5ZM661.8,404.2l-193.3,193.3c12.2-2,24.7-4.9,37.1-8.7l158.2-183.5c-.7-.3-1.4-.6-2-1.1Z"/>
        </g>
        <g class="st66">
          <path class="st17" d="M557.5,508.1c-3.9-.5-7.6-1.4-11.1-2.7-3.5-1.3-6.8-3.1-9.7-5.2-6.1-4.5-10.6-10.9-13.3-19.1-2.9-8.7-3.6-19.4-2.1-31.8,1.7-13.1,5.9-28,12.7-44.2,3.5-8.4,7.8-17,12.6-25.8.6-1.1,1.3-2.2,1.9-3.4.6-1.1,1.3-2.2,1.9-3.4,1.3-2.3,2.7-4.5,4.1-6.8,2.8-4.6,5.8-9.2,8.9-13.8,6.3-9.3,13.2-18.6,20.6-27.8,7.5-9.2,15.4-18.3,23.7-27.1,8.3-8.8,16.9-17.3,25.8-25.3,8.8-8,17.8-15.5,26.9-22.4,17.8-13.7,35.6-24.9,52.4-33.1v-.7c-16.8,8.2-34.6,19.5-52.5,33.2-9.1,7-18.1,14.5-27,22.5-8.9,8.1-17.6,16.6-25.9,25.4-8.3,8.8-16.3,18-23.8,27.3-7.4,9.2-14.3,18.6-20.7,27.9-3.1,4.6-6.1,9.3-8.9,13.9-1.4,2.3-2.8,4.6-4.1,6.8-.7,1.1-1.3,2.3-1.9,3.4-.6,1.1-1.3,2.2-1.9,3.4-4.9,8.9-9.1,17.6-12.7,25.9-6.9,16.2-11.1,31.2-12.7,44.4-1.5,12.4-.8,23.2,2.2,31.9,2.7,8.2,7.3,14.6,13.4,19.1,2.9,2.1,6.2,3.9,9.7,5.2,3.5,1.3,7.2,2.2,11.1,2.7l.4-.4Z"/>
          <path class="st22" d="M685.6,270.5c-1.1,1.1-1.7,2.6-1.3,3.4.4.8,1.6.6,2.7-.5.8-.8,1.3-1.7,1.4-2.5,18.3-12,35.6-20.2,50.7-24.1,3.5-.9,6.9-1.6,10.1-2-.3.6-.4,1.3-.3,1.7.2,1,1.4.8,2.7-.4.5-.5.9-1.1,1.3-1.7,8.2-.7,15.3.2,21.1,2.7-.4.6-.6,1.3-.5,1.7.1.7.9.6,1.8-.3.9-.9,1.6-2.2,1.5-3,0-.7-.9-.6-1.8.3-.2.2-.4.4-.6.7-5.8-2.5-12.9-3.4-21.1-2.7.3-.7.4-1.3.3-1.8-.2-1-1.4-.9-2.7.4-.5.5-1,1.2-1.3,1.8-3.2.4-6.6,1.1-10.2,2-15.2,3.9-32.7,12.1-51,24.2,0-.1,0-.2,0-.3-.4-.8-1.6-.6-2.7.5Z"/>
          <path class="st19" d="M737.4,243.7c.8-.8,1.4-1.7,1.8-2.6,8.2-2.2,15.7-3.3,22.3-3.1,7,.1,13,1.5,17.9,4.2,4.7,2.5,8.4,6.1,11.1,10.6,2.5,4.3,4.1,9.4,4.8,15.3,1.3,10.9-.7,24.1-5.5,38.4-4.2,12.6-10.7,26.3-18.8,40-.5.2-1.1.6-1.8,1.3-1.3,1.3-2.2,2.9-2.1,3.6.2.7,1.4.2,2.6-1.1,1.3-1.3,2.2-2.9,2.1-3.6,0-.3-.3-.4-.6-.3,8.1-13.7,14.7-27.5,18.9-40.2,4.8-14.4,6.9-27.6,5.6-38.6-.7-5.8-2.3-11-4.8-15.3-2.6-4.5-6.4-8.1-11.1-10.7-4.9-2.7-11-4.1-18-4.2-6.6-.2-14.1.9-22.3,3.1.3-.8.4-1.5.2-2-.3-1.3-1.9-1.1-3.6.5s-2.7,4-2.3,5.4c.4,1.3,2,1.1,3.6-.5Z"/>
          <path class="st18" d="M603.4,461.4c-.7-.3-2.3.5-3.6,1.8-1.3,1.3-1.7,2.5-.9,2.8.7.2,2.1-.4,3.3-1.5,5.2,1.7,11.3,2,18.2,1.1,1.8-.3,3.5-.6,5.4-1,1.8-.4,3.7-.9,5.6-1.5l.7-.2h.4c0-.1.4-.2.4-.2l1.4-.5,1.4-.5c.5-.2,1-.4,1.5-.5,1.9-.7,3.9-1.5,5.9-2.3,5.5-2.4,11.3-5.3,17-8.6,0,.2,0,.4.1.5.4.2,1.4-.3,2.2-1.2.4-.4.7-.9.9-1.2,1.3-.8,2.6-1.6,4-2.5,4-2.6,8.1-5.4,12.2-8.3,2-1.5,4-3,6-4.6l.7-.6c.2-.2.5-.4.7-.6l1.5-1.2,1.5-1.2.4-.3.4-.3.7-.6c2-1.6,3.9-3.3,5.9-5,2-1.7,3.9-3.5,5.8-5.2,1.9-1.8,3.8-3.6,5.7-5.4l1.4-1.4,1.4-1.4c.5-.5.9-.9,1.4-1.4l.7-.7c.2-.2.5-.5.7-.7,1.9-1.9,3.7-3.8,5.5-5.8.9-1,1.8-2,2.7-2.9l1.3-1.5c.4-.5.9-1,1.3-1.5,1.7-2,3.5-4,5.2-6,1.7-2,3.3-4.1,5-6.1,6.5-8.3,12.6-16.8,17.7-25.3,2.7-4.3,5.1-8.6,7.3-12.9,1.1-2.2,2.2-4.3,3.2-6.4.8-1.8,1.6-3.5,2.4-5.3.2-.1.3-.3.5-.4.8-.8,1.4-1.8,1.3-2.3-.1-.5-.8-.2-1.7.6s-1.4,1.8-1.3,2.3c0,.3.4.3.8,0-.7,1.7-1.5,3.5-2.4,5.2-1,2.1-2,4.2-3.2,6.4-2.2,4.2-4.6,8.5-7.3,12.8-5.2,8.4-11.2,16.9-17.7,25.2-1.6,2-3.3,4.1-4.9,6.1-1.7,2-3.4,4-5.1,6-.4.5-.9,1-1.3,1.5l-1.3,1.5c-.9,1-1.8,2-2.7,2.9-1.8,1.9-3.6,3.9-5.5,5.8-.2.2-.5.5-.7.7l-.7.7c-.5.5-.9.9-1.4,1.4l-1.4,1.4-1.4,1.4c-1.9,1.8-3.8,3.7-5.7,5.4-1.9,1.8-3.9,3.5-5.8,5.2-1.9,1.7-3.9,3.4-5.9,5l-.7.6-.4.3-.4.3-1.5,1.2-1.5,1.2c-.2.2-.5.4-.7.6l-.7.6c-2,1.6-4,3.1-6,4.5-4,2.9-8.1,5.7-12.1,8.3-1.3.8-2.6,1.7-4,2.5,0-.2,0-.4-.1-.5-.4-.2-1.4.3-2.2,1.2-.4.4-.7.8-.9,1.2-5.8,3.3-11.5,6.2-17,8.6-2,.8-3.9,1.6-5.9,2.3-.5.2-1,.4-1.4.5l-1.4.5-1.4.5h-.4c0,.1-.4.2-.4.2l-.7.2c-1.9.6-3.7,1.1-5.6,1.5-1.8.4-3.6.7-5.4,1-6.8,1-12.9.6-18.1-1.1,1.2-1.2,1.5-2.4.8-2.6Z"/>
        </g>
        <path class="st59" d="M656.2,491.1c.2-.2.3-.3.4-.5,2.7-1.9,5.5-3.9,8.2-5.9l2.2-1.6c.7-.5,1.5-1.1,2.2-1.6l1.1-.8c.4-.3.7-.6,1.1-.8l2.2-1.7c5.7-4.4,11.4-9,17.1-13.8,5.6-4.7,11.1-9.5,16.6-14.5l2-1.9,1-.9,1-.9,2-1.9,2-1.9,1-.9,1-1,2-1.9,2-1.9,1-1,1-1,1-1s0,0,0,0c.2.2.9-.2,1.6-.9.7-.7,1.1-1.4,1-1.6l.4-.4,1-1,1-1,1.9-2,1.9-2,1-1c.3-.3.6-.7,1-1l1.9-2c.6-.7,1.3-1.3,1.9-2l1-1c.3-.3.6-.7,1-1l1.9-2c.6-.7,1.3-1.4,1.9-2l.9-1,.9-1,1.9-2.1,1.9-2.1.9-1,.9-1,1.9-2.1c9.3-10.6,18.3-21.5,26.8-32.6.4,0,1.1-.5,1.9-1.3,1.1-1.1,2-2.5,1.9-3,0-.5-1.1,0-2.2,1.1s-2,2.5-1.9,3c0,.1,0,.2.2.2-8.4,11.1-17.4,22-26.7,32.5l-1.9,2.1-.9,1-.9,1-1.9,2.1-1.9,2.1-.9,1-.9,1c-.6.7-1.3,1.4-1.9,2l-1.9,2c-.3.3-.6.7-1,1l-1,1c-.6.7-1.3,1.3-1.9,2l-1.9,2c-.3.3-.6.7-1,1l-1,1-1.9,2-1.9,2-1,1-1,1-.4.4c-.3,0-.9.3-1.5.9s-1,1.2-1,1.5l-1,1-1,1-1,1-2,1.9-2,1.9-1,1-1,.9-2,1.9-2,1.9-1,.9-1,.9-2,1.9c-5.5,4.9-11,9.8-16.6,14.5-5.6,4.7-11.3,9.3-17.1,13.7l-2.2,1.7c-.4.3-.7.6-1.1.8l-1.1.8c-.7.5-1.5,1.1-2.2,1.6l-2.2,1.6c-2.7,2-5.4,4-8.2,5.9,0,0,0-.1,0-.1-.2,0-.7.2-1.1.6s-.6.8-.4.8c.2,0,.7-.2,1.1-.6Z"/>
      </g>
      <rect class="st0" x="178" y="147" width="600" height="300"/>
    </g>
  </g>
</svg>